<?xml version="1.0" encoding="UTF-8" standalone="no"?>
<!DOCTYPE svg PUBLIC "-//W3C//DTD SVG 1.1//EN"
 "http://www.w3.org/Graphics/SVG/1.1/DTD/svg11.dtd">
<!-- Generated by graphviz version 2.36.0 (20140111.2315)
 -->
<!-- Title: structs Pages: 1 -->
<svg width="910pt" height="1366pt"
 viewBox="0.00 0.00 910.46 1366.00" xmlns="http://www.w3.org/2000/svg" xmlns:xlink="http://www.w3.org/1999/xlink">
<g id="graph0" class="graph" transform="scale(1 1) rotate(0) translate(4 1362)">
<title>structs</title>
<polygon fill="white" stroke="none" points="-4,4 -4,-1362 906.456,-1362 906.456,4 -4,4"/>
<g id="clust1" class="cluster"><title>cluster_shapeExpr</title>
<polygon fill="#cccccc" stroke="black" points="25.2694,-726 25.2694,-1114 613.269,-1114 613.269,-726 25.2694,-726"/>
</g>
<g id="clust2" class="cluster"><title>cluster_valueExpr</title>
<polygon fill="#cccccc" stroke="black" points="36.2694,-8 36.2694,-706 454.269,-706 454.269,-8 36.2694,-8"/>
</g>
<g id="clust3" class="cluster"><title>cluster_valueClassOrRef</title>
<polygon fill="#b3b3b3" stroke="black" points="44.2694,-16 44.2694,-466 446.269,-466 446.269,-16 44.2694,-16"/>
</g>
<!-- schema -->
<g id="node1" class="node"><title>schema</title>
<polygon fill="none" stroke="black" points="220.269,-1311 220.269,-1357 902.269,-1357 902.269,-1311 220.269,-1311"/>
<text text-anchor="middle" x="251.269" y="-1330.3" font-family="Times,serif" font-size="14.00">schema:</text>
<polyline fill="none" stroke="black" points="282.269,-1311 282.269,-1357 "/>
<text text-anchor="middle" x="342.769" y="-1341.8" font-family="Times,serif" font-size="14.00">prefixes?</text>
<polyline fill="none" stroke="black" points="282.269,-1334 403.269,-1334 "/>
<text text-anchor="middle" x="323.269" y="-1318.8" font-family="Times,serif" font-size="14.00">[PREFIX→</text>
<polyline fill="none" stroke="black" points="364.269,-1311 364.269,-1334 "/>
<text text-anchor="middle" x="383.769" y="-1318.8" font-family="Times,serif" font-size="14.00">IRI]</text>
<polyline fill="none" stroke="black" points="403.269,-1311 403.269,-1357 "/>
<text text-anchor="middle" x="503.769" y="-1341.8" font-family="Times,serif" font-size="14.00">valueExprDefns?</text>
<polyline fill="none" stroke="black" points="403.269,-1334 604.269,-1334 "/>
<text text-anchor="middle" x="451.769" y="-1318.8" font-family="Times,serif" font-size="14.00">[shapeLabel→</text>
<polyline fill="none" stroke="black" points="500.269,-1311 500.269,-1334 "/>
<text text-anchor="middle" x="552.269" y="-1318.8" font-family="Times,serif" font-size="14.00">valueExprDefn]</text>
<polyline fill="none" stroke="black" points="604.269,-1311 604.269,-1357 "/>
<text text-anchor="middle" x="639.769" y="-1341.8" font-family="Times,serif" font-size="14.00">startActs?</text>
<polyline fill="none" stroke="black" points="604.269,-1334 675.269,-1334 "/>
<text text-anchor="middle" x="639.769" y="-1318.8" font-family="Times,serif" font-size="14.00">[semact]</text>
<polyline fill="none" stroke="black" points="675.269,-1311 675.269,-1357 "/>
<text text-anchor="middle" x="714.269" y="-1341.8" font-family="Times,serif" font-size="14.00">start?</text>
<polyline fill="none" stroke="black" points="675.269,-1334 753.269,-1334 "/>
<text text-anchor="middle" x="714.269" y="-1318.8" font-family="Times,serif" font-size="14.00">shapeLabel</text>
<polyline fill="none" stroke="black" points="753.269,-1311 753.269,-1357 "/>
<text text-anchor="middle" x="827.769" y="-1341.8" font-family="Times,serif" font-size="14.00">shapes?</text>
<polyline fill="none" stroke="black" points="753.269,-1334 902.269,-1334 "/>
<text text-anchor="middle" x="801.769" y="-1318.8" font-family="Times,serif" font-size="14.00">[shapeLabel→</text>
<polyline fill="none" stroke="black" points="850.269,-1311 850.269,-1334 "/>
<text text-anchor="middle" x="876.269" y="-1318.8" font-family="Times,serif" font-size="14.00">shape]</text>
</g>
<!-- shape -->
<g id="node2" class="node"><title>shape</title>
<polygon fill="none" stroke="black" points="357.769,-1227 357.769,-1273 810.769,-1273 810.769,-1227 357.769,-1227"/>
<text text-anchor="middle" x="383.269" y="-1246.3" font-family="Times,serif" font-size="14.00">shape:</text>
<polyline fill="none" stroke="black" points="408.769,-1227 408.769,-1273 "/>
<text text-anchor="middle" x="437.769" y="-1257.8" font-family="Times,serif" font-size="14.00">virtual?</text>
<polyline fill="none" stroke="black" points="408.769,-1250 466.769,-1250 "/>
<text text-anchor="middle" x="437.769" y="-1234.8" font-family="Times,serif" font-size="14.00">BOOL</text>
<polyline fill="none" stroke="black" points="466.769,-1227 466.769,-1273 "/>
<text text-anchor="middle" x="495.269" y="-1257.8" font-family="Times,serif" font-size="14.00">closed?</text>
<polyline fill="none" stroke="black" points="466.769,-1250 523.769,-1250 "/>
<text text-anchor="middle" x="495.269" y="-1234.8" font-family="Times,serif" font-size="14.00">BOOL</text>
<polyline fill="none" stroke="black" points="523.769,-1227 523.769,-1273 "/>
<text text-anchor="middle" x="548.769" y="-1257.8" font-family="Times,serif" font-size="14.00">extra?</text>
<polyline fill="none" stroke="black" points="523.769,-1250 573.769,-1250 "/>
<text text-anchor="middle" x="548.769" y="-1234.8" font-family="Times,serif" font-size="14.00">[IRI]</text>
<polyline fill="none" stroke="black" points="573.769,-1227 573.769,-1273 "/>
<text text-anchor="middle" x="613.769" y="-1257.8" font-family="Times,serif" font-size="14.00">expression?</text>
<polyline fill="none" stroke="black" points="573.769,-1250 653.769,-1250 "/>
<text text-anchor="middle" x="613.769" y="-1234.8" font-family="Times,serif" font-size="14.00">shapeExpr</text>
<polyline fill="none" stroke="black" points="653.769,-1227 653.769,-1273 "/>
<text text-anchor="middle" x="697.269" y="-1257.8" font-family="Times,serif" font-size="14.00">inherit?</text>
<polyline fill="none" stroke="black" points="653.769,-1250 740.769,-1250 "/>
<text text-anchor="middle" x="697.269" y="-1234.8" font-family="Times,serif" font-size="14.00">[shapeLabel]</text>
<polyline fill="none" stroke="black" points="740.769,-1227 740.769,-1273 "/>
<text text-anchor="middle" x="775.769" y="-1257.8" font-family="Times,serif" font-size="14.00">semActs?</text>
<polyline fill="none" stroke="black" points="740.769,-1250 810.769,-1250 "/>
<text text-anchor="middle" x="775.769" y="-1234.8" font-family="Times,serif" font-size="14.00">[semAct]</text>
</g>
<!-- schema&#45;&gt;shape -->
<g id="edge11" class="edge"><title>schema:schema&#45;&gt;shape:shape</title>
<path fill="none" stroke="none" d="M251.269,-1310C251.269,-1253.23 366.32,-1324.08 381.6,-1284.26"/>
<polygon fill="none" stroke="none" points="385.119,-1284.43 383.269,-1274 378.21,-1283.31 385.119,-1284.43"/>
</g>
<!-- schema&#45;&gt;shape -->
<g id="edge17" class="edge"><title>schema:shape&#45;&gt;shape:shape</title>
<path fill="none" stroke="black" d="M876.269,-1310C876.269,-1203.8 415.464,-1371.97 384.864,-1283.99"/>
<polygon fill="black" stroke="black" points="388.301,-1283.32 383.269,-1274 381.389,-1284.43 388.301,-1283.32"/>
</g>
<!-- valueExprDefn -->
<g id="node14" class="node"><title>valueExprDefn</title>
<polygon fill="none" stroke="black" points="208.769,-1143 208.769,-1189 547.769,-1189 547.769,-1143 208.769,-1143"/>
<text text-anchor="middle" x="260.269" y="-1162.3" font-family="Times,serif" font-size="14.00">valueExprDefn:</text>
<polyline fill="none" stroke="black" points="311.769,-1143 311.769,-1189 "/>
<text text-anchor="middle" x="352.269" y="-1173.8" font-family="Times,serif" font-size="14.00">valueExpr</text>
<polyline fill="none" stroke="black" points="311.769,-1166 392.769,-1166 "/>
<text text-anchor="middle" x="352.269" y="-1150.8" font-family="Times,serif" font-size="14.00">[valueExpr]</text>
<polyline fill="none" stroke="black" points="392.769,-1143 392.769,-1189 "/>
<text text-anchor="middle" x="427.769" y="-1173.8" font-family="Times,serif" font-size="14.00">semActs?</text>
<polyline fill="none" stroke="black" points="392.769,-1166 462.769,-1166 "/>
<text text-anchor="middle" x="427.769" y="-1150.8" font-family="Times,serif" font-size="14.00">[semAct]</text>
<polyline fill="none" stroke="black" points="462.769,-1143 462.769,-1189 "/>
<text text-anchor="middle" x="505.269" y="-1173.8" font-family="Times,serif" font-size="14.00">annotations?</text>
<polyline fill="none" stroke="black" points="462.769,-1166 547.769,-1166 "/>
<text text-anchor="middle" x="505.269" y="-1150.8" font-family="Times,serif" font-size="14.00">[annotation]</text>
</g>
<!-- schema&#45;&gt;valueExprDefn -->
<g id="edge18" class="edge"><title>schema:valueExprDefn&#45;&gt;valueExprDefn</title>
<path fill="none" stroke="black" d="M552.269,-1310C552.269,-1218.37 408.133,-1344.22 349.269,-1274 331.368,-1252.65 342.991,-1221.22 356.468,-1197.95"/>
<polygon fill="black" stroke="black" points="359.619,-1199.51 361.869,-1189.15 353.653,-1195.84 359.619,-1199.51"/>
</g>
<!-- pushSemActDown -->
<g id="node15" class="node"><title>pushSemActDown</title>
</g>
<!-- schema&#45;&gt;pushSemActDown -->
<g id="edge23" class="edge"><title>schema:shape&#45;&gt;pushSemActDown</title>
<path fill="none" stroke="none" d="M876.269,-1310C876.269,-1246.44 876.269,-1230.56 876.269,-1167 876.269,-1167 876.269,-1167 876.269,-1087 876.269,-927.81 835.711,-736.443 825.554,-691.015"/>
<polygon fill="none" stroke="none" points="828.943,-690.135 823.308,-681.163 822.119,-691.691 828.943,-690.135"/>
</g>
<!-- semAct -->
<g id="node16" class="node"><title>semAct</title>
<polygon fill="none" stroke="mediumvioletred" points="699.769,-579 699.769,-625 870.769,-625 870.769,-579 699.769,-579"/>
<text text-anchor="middle" x="729.269" y="-598.3" font-family="Times,serif" font-size="14.00">semAct</text>
<polyline fill="none" stroke="mediumvioletred" points="758.769,-579 758.769,-625 "/>
<text text-anchor="middle" x="782.269" y="-609.8" font-family="Times,serif" font-size="14.00">name</text>
<polyline fill="none" stroke="mediumvioletred" points="758.769,-602 805.769,-602 "/>
<text text-anchor="middle" x="782.269" y="-586.8" font-family="Times,serif" font-size="14.00">IRI</text>
<polyline fill="none" stroke="mediumvioletred" points="805.769,-579 805.769,-625 "/>
<text text-anchor="middle" x="838.269" y="-609.8" font-family="Times,serif" font-size="14.00">code</text>
<polyline fill="none" stroke="mediumvioletred" points="805.769,-602 870.769,-602 "/>
<text text-anchor="middle" x="838.269" y="-586.8" font-family="Times,serif" font-size="14.00">STRING</text>
</g>
<!-- schema&#45;&gt;semAct -->
<g id="edge28" class="edge"><title>schema:semAct&#45;&gt;semAct:semAct</title>
<path fill="none" stroke="mediumvioletred" d="M640.269,-1310C640.269,-1228.85 762.545,-1332.03 819.269,-1274 853.032,-1239.46 838.269,-1215.3 838.269,-1167 838.269,-1167 838.269,-1167 838.269,-1087 838.269,-978.075 861.269,-951.925 861.269,-843 861.269,-843 861.269,-843 861.269,-757 861.269,-712.854 862.855,-693.833 832.269,-662 801.427,-629.9 740.415,-667.261 730.612,-636.095"/>
<polygon fill="mediumvioletred" stroke="mediumvioletred" points="734.058,-635.451 729.269,-626 727.119,-636.374 734.058,-635.451"/>
</g>
<!-- shapeExpr -->
<g id="node3" class="node"><title>shapeExpr</title>
<text text-anchor="middle" x="373.269" y="-1084.3" font-family="Times,serif" font-size="14.00">shapeExpr</text>
</g>
<!-- shape&#45;&gt;shapeExpr -->
<g id="edge14" class="edge"><title>shape:shapeExpr&#45;&gt;shapeExpr</title>
<path fill="none" stroke="black" d="M614.269,-1226C614.269,-1137.7 490.476,-1105.6 420.336,-1094.49"/>
<polygon fill="black" stroke="black" points="420.806,-1091.03 410.397,-1093.01 419.768,-1097.95 420.806,-1091.03"/>
</g>
<!-- shape&#45;&gt;valueExprDefn -->
<g id="edge12" class="edge"><title>shape:shape&#45;&gt;valueExprDefn</title>
<path fill="none" stroke="none" d="M383.269,-1226C383.269,-1217.3 382.723,-1207.91 381.992,-1199.23"/>
<polygon fill="none" stroke="none" points="385.459,-1198.72 381.033,-1189.1 378.491,-1199.38 385.459,-1198.72"/>
</g>
<!-- shape&#45;&gt;semAct -->
<g id="edge29" class="edge"><title>shape:semAct&#45;&gt;semAct:semAct</title>
<path fill="none" stroke="mediumvioletred" d="M776.269,-1226C776.269,-1164.98 785.269,-1150.02 785.269,-1089 785.269,-1089 785.269,-1089 785.269,-757 785.269,-697.268 735.433,-690.002 729.788,-636.213"/>
<polygon fill="mediumvioletred" stroke="mediumvioletred" points="733.272,-635.81 729.269,-626 726.281,-636.165 733.272,-635.81"/>
</g>
<!-- eachOf -->
<g id="node4" class="node"><title>eachOf</title>
<polygon fill="white" stroke="black" points="141.269,-987 141.269,-1033 605.269,-1033 605.269,-987 141.269,-987"/>
<text text-anchor="middle" x="169.269" y="-1006.3" font-family="Times,serif" font-size="14.00">eachOf</text>
<polyline fill="none" stroke="black" points="197.269,-987 197.269,-1033 "/>
<text text-anchor="middle" x="238.769" y="-1017.8" font-family="Times,serif" font-size="14.00">expressions</text>
<polyline fill="none" stroke="black" points="197.269,-1010 280.269,-1010 "/>
<text text-anchor="middle" x="238.769" y="-994.8" font-family="Times,serif" font-size="14.00">[shapeExpr]</text>
<polyline fill="none" stroke="black" points="280.269,-987 280.269,-1033 "/>
<text text-anchor="middle" x="317.269" y="-1017.8" font-family="Times,serif" font-size="14.00">min?</text>
<polyline fill="none" stroke="black" points="280.269,-1010 354.269,-1010 "/>
<text text-anchor="middle" x="317.269" y="-994.8" font-family="Times,serif" font-size="14.00">INTEGER</text>
<polyline fill="none" stroke="black" points="354.269,-987 354.269,-1033 "/>
<text text-anchor="middle" x="402.269" y="-1017.8" font-family="Times,serif" font-size="14.00">max?</text>
<polyline fill="none" stroke="black" points="354.269,-1010 450.269,-1010 "/>
<text text-anchor="middle" x="402.269" y="-994.8" font-family="Times,serif" font-size="14.00">INTEGER|&quot;*&quot;</text>
<polyline fill="none" stroke="black" points="450.269,-987 450.269,-1033 "/>
<text text-anchor="middle" x="485.269" y="-1017.8" font-family="Times,serif" font-size="14.00">semActs?</text>
<polyline fill="none" stroke="black" points="450.269,-1010 520.269,-1010 "/>
<text text-anchor="middle" x="485.269" y="-994.8" font-family="Times,serif" font-size="14.00">[semAct]</text>
<polyline fill="none" stroke="black" points="520.269,-987 520.269,-1033 "/>
<text text-anchor="middle" x="562.769" y="-1017.8" font-family="Times,serif" font-size="14.00">annotations?</text>
<polyline fill="none" stroke="black" points="520.269,-1010 605.269,-1010 "/>
<text text-anchor="middle" x="562.769" y="-994.8" font-family="Times,serif" font-size="14.00">[annotation]</text>
</g>
<!-- shapeExpr&#45;&gt;eachOf -->
<g id="edge1" class="edge"><title>shapeExpr&#45;&gt;eachOf</title>
<path fill="none" stroke="none" d="M373.269,-1069.75C373.269,-1061.86 373.269,-1052.25 373.269,-1043.1"/>
<polygon fill="none" stroke="none" points="376.769,-1043.09 373.269,-1033.09 369.769,-1043.09 376.769,-1043.09"/>
</g>
<!-- eachOf&#45;&gt;shapeExpr -->
<g id="edge15" class="edge"><title>eachOf:shapeExpr&#45;&gt;shapeExpr</title>
<path fill="none" stroke="black" d="M238.269,-986C238.269,-964.443 156.433,-971.679 141.269,-987 126.575,-1001.85 128.247,-1017.67 141.269,-1034 163.913,-1062.4 264.894,-1076.79 325.922,-1083.02"/>
<polygon fill="black" stroke="black" points="325.795,-1086.52 336.09,-1084.02 326.481,-1079.56 325.795,-1086.52"/>
</g>
<!-- someOf -->
<g id="node5" class="node"><title>someOf</title>
<polygon fill="white" stroke="black" points="124.269,-903 124.269,-949 592.269,-949 592.269,-903 124.269,-903"/>
<text text-anchor="middle" x="154.269" y="-922.3" font-family="Times,serif" font-size="14.00">someOf</text>
<polyline fill="none" stroke="black" points="184.269,-903 184.269,-949 "/>
<text text-anchor="middle" x="225.769" y="-933.8" font-family="Times,serif" font-size="14.00">expressions</text>
<polyline fill="none" stroke="black" points="184.269,-926 267.269,-926 "/>
<text text-anchor="middle" x="225.769" y="-910.8" font-family="Times,serif" font-size="14.00">[shapeExpr]</text>
<polyline fill="none" stroke="black" points="267.269,-903 267.269,-949 "/>
<text text-anchor="middle" x="304.269" y="-933.8" font-family="Times,serif" font-size="14.00">min?</text>
<polyline fill="none" stroke="black" points="267.269,-926 341.269,-926 "/>
<text text-anchor="middle" x="304.269" y="-910.8" font-family="Times,serif" font-size="14.00">INTEGER</text>
<polyline fill="none" stroke="black" points="341.269,-903 341.269,-949 "/>
<text text-anchor="middle" x="389.269" y="-933.8" font-family="Times,serif" font-size="14.00">max?</text>
<polyline fill="none" stroke="black" points="341.269,-926 437.269,-926 "/>
<text text-anchor="middle" x="389.269" y="-910.8" font-family="Times,serif" font-size="14.00">INTEGER|&quot;*&quot;</text>
<polyline fill="none" stroke="black" points="437.269,-903 437.269,-949 "/>
<text text-anchor="middle" x="472.269" y="-933.8" font-family="Times,serif" font-size="14.00">semActs?</text>
<polyline fill="none" stroke="black" points="437.269,-926 507.269,-926 "/>
<text text-anchor="middle" x="472.269" y="-910.8" font-family="Times,serif" font-size="14.00">[semAct]</text>
<polyline fill="none" stroke="black" points="507.269,-903 507.269,-949 "/>
<text text-anchor="middle" x="549.769" y="-933.8" font-family="Times,serif" font-size="14.00">annotations?</text>
<polyline fill="none" stroke="black" points="507.269,-926 592.269,-926 "/>
<text text-anchor="middle" x="549.769" y="-910.8" font-family="Times,serif" font-size="14.00">[annotation]</text>
</g>
<!-- eachOf&#45;&gt;someOf -->
<g id="edge2" class="edge"><title>eachOf&#45;&gt;someOf</title>
<path fill="none" stroke="none" d="M369.171,-986.593C367.62,-978.118 365.824,-968.297 364.142,-959.104"/>
<polygon fill="none" stroke="none" points="367.554,-958.303 362.311,-949.096 360.668,-959.562 367.554,-958.303"/>
</g>
<!-- annotation -->
<g id="node17" class="node"><title>annotation</title>
<polygon fill="none" stroke="mediumvioletred" points="634.269,-495 634.269,-541 860.269,-541 860.269,-495 634.269,-495"/>
<text text-anchor="middle" x="671.269" y="-514.3" font-family="Times,serif" font-size="14.00">annotation</text>
<polyline fill="none" stroke="mediumvioletred" points="708.269,-495 708.269,-541 "/>
<text text-anchor="middle" x="741.269" y="-525.8" font-family="Times,serif" font-size="14.00">predicate</text>
<polyline fill="none" stroke="mediumvioletred" points="708.269,-518 774.269,-518 "/>
<text text-anchor="middle" x="741.269" y="-502.8" font-family="Times,serif" font-size="14.00">IRI</text>
<polyline fill="none" stroke="mediumvioletred" points="774.269,-495 774.269,-541 "/>
<text text-anchor="middle" x="817.269" y="-525.8" font-family="Times,serif" font-size="14.00">object</text>
<polyline fill="none" stroke="mediumvioletred" points="774.269,-518 860.269,-518 "/>
<text text-anchor="middle" x="817.269" y="-502.8" font-family="Times,serif" font-size="14.00">STRING|IRI</text>
</g>
<!-- eachOf&#45;&gt;annotation -->
<g id="edge32" class="edge"><title>eachOf:annotation&#45;&gt;annotation:annotation</title>
<path fill="none" stroke="mediumvioletred" d="M606.269,-998C680.97,-998 671.269,-917.701 671.269,-843 671.269,-843 671.269,-843 671.269,-679 671.269,-621.679 671.269,-604.83 671.269,-552.251"/>
<polygon fill="mediumvioletred" stroke="mediumvioletred" points="674.769,-552 671.269,-542 667.769,-552 674.769,-552"/>
</g>
<!-- someOf&#45;&gt;shapeExpr -->
<g id="edge16" class="edge"><title>someOf:shapeExpr&#45;&gt;shapeExpr</title>
<path fill="none" stroke="black" d="M225.269,-902C225.269,-879.554 140.062,-887.05 124.269,-903 83.228,-944.45 93.604,-990.326 132.269,-1034 157.421,-1062.41 263.154,-1076.88 325.91,-1083.1"/>
<polygon fill="black" stroke="black" points="325.682,-1086.59 335.97,-1084.06 326.349,-1079.62 325.682,-1086.59"/>
</g>
<!-- inclusion -->
<g id="node6" class="node"><title>inclusion</title>
<polygon fill="white" stroke="black" points="273.269,-819 273.269,-865 417.269,-865 417.269,-819 273.269,-819"/>
<text text-anchor="middle" x="306.269" y="-838.3" font-family="Times,serif" font-size="14.00">inclusion</text>
<polyline fill="none" stroke="black" points="339.269,-819 339.269,-865 "/>
<text text-anchor="middle" x="378.269" y="-849.8" font-family="Times,serif" font-size="14.00">include</text>
<polyline fill="none" stroke="black" points="339.269,-842 417.269,-842 "/>
<text text-anchor="middle" x="378.269" y="-826.8" font-family="Times,serif" font-size="14.00">shapeLabel</text>
</g>
<!-- someOf&#45;&gt;inclusion -->
<g id="edge3" class="edge"><title>someOf&#45;&gt;inclusion</title>
<path fill="none" stroke="none" d="M354.717,-902.593C353.373,-894.118 351.817,-884.297 350.359,-875.104"/>
<polygon fill="none" stroke="none" points="353.795,-874.424 348.772,-865.096 346.881,-875.521 353.795,-874.424"/>
</g>
<!-- someOf&#45;&gt;annotation -->
<g id="edge33" class="edge"><title>someOf:annotation&#45;&gt;annotation:annotation</title>
<path fill="none" stroke="mediumvioletred" d="M593.269,-914C664.415,-914 633.269,-830.146 633.269,-759 633.269,-759 633.269,-759 633.269,-679 633.269,-632.861 643.542,-622.049 657.269,-578 661.18,-565.451 667.309,-561.079 669.967,-552.013"/>
<polygon fill="mediumvioletred" stroke="mediumvioletred" points="673.45,-552.368 671.269,-542 666.509,-551.465 673.45,-552.368"/>
</g>
<!-- tripleConstraint -->
<g id="node7" class="node"><title>tripleConstraint</title>
<polygon fill="white" stroke="black" points="33.2694,-735 33.2694,-781 605.269,-781 605.269,-735 33.2694,-735"/>
<text text-anchor="middle" x="83.7694" y="-754.3" font-family="Times,serif" font-size="14.00">tripleConstraint</text>
<polyline fill="none" stroke="black" points="134.269,-735 134.269,-781 "/>
<text text-anchor="middle" x="166.769" y="-765.8" font-family="Times,serif" font-size="14.00">negated?</text>
<polyline fill="none" stroke="black" points="134.269,-758 199.269,-758 "/>
<text text-anchor="middle" x="166.769" y="-742.8" font-family="Times,serif" font-size="14.00">BOOL</text>
<polyline fill="none" stroke="black" points="199.269,-735 199.269,-781 "/>
<text text-anchor="middle" x="239.769" y="-765.8" font-family="Times,serif" font-size="14.00">valueExpr</text>
<polyline fill="none" stroke="black" points="199.269,-758 280.269,-758 "/>
<text text-anchor="middle" x="239.769" y="-742.8" font-family="Times,serif" font-size="14.00">[valueExpr]</text>
<polyline fill="none" stroke="black" points="280.269,-735 280.269,-781 "/>
<text text-anchor="middle" x="317.269" y="-765.8" font-family="Times,serif" font-size="14.00">min?</text>
<polyline fill="none" stroke="black" points="280.269,-758 354.269,-758 "/>
<text text-anchor="middle" x="317.269" y="-742.8" font-family="Times,serif" font-size="14.00">INTEGER</text>
<polyline fill="none" stroke="black" points="354.269,-735 354.269,-781 "/>
<text text-anchor="middle" x="402.269" y="-765.8" font-family="Times,serif" font-size="14.00">max?</text>
<polyline fill="none" stroke="black" points="354.269,-758 450.269,-758 "/>
<text text-anchor="middle" x="402.269" y="-742.8" font-family="Times,serif" font-size="14.00">INTEGER|&quot;*&quot;</text>
<polyline fill="none" stroke="black" points="450.269,-735 450.269,-781 "/>
<text text-anchor="middle" x="485.269" y="-765.8" font-family="Times,serif" font-size="14.00">semActs?</text>
<polyline fill="none" stroke="black" points="450.269,-758 520.269,-758 "/>
<text text-anchor="middle" x="485.269" y="-742.8" font-family="Times,serif" font-size="14.00">[semAct]</text>
<polyline fill="none" stroke="black" points="520.269,-735 520.269,-781 "/>
<text text-anchor="middle" x="562.769" y="-765.8" font-family="Times,serif" font-size="14.00">annotations?</text>
<polyline fill="none" stroke="black" points="520.269,-758 605.269,-758 "/>
<text text-anchor="middle" x="562.769" y="-742.8" font-family="Times,serif" font-size="14.00">[annotation]</text>
</g>
<!-- inclusion&#45;&gt;tripleConstraint -->
<g id="edge4" class="edge"><title>inclusion&#45;&gt;tripleConstraint</title>
<path fill="none" stroke="none" d="M338.165,-818.593C335.449,-810.027 332.297,-800.086 329.355,-790.808"/>
<polygon fill="none" stroke="none" points="332.634,-789.57 326.275,-781.096 325.962,-791.686 332.634,-789.57"/>
</g>
<!-- valueExpr -->
<g id="node8" class="node"><title>valueExpr</title>
<text text-anchor="middle" x="219.269" y="-676.3" font-family="Times,serif" font-size="14.00">valueExpr</text>
</g>
<!-- tripleConstraint&#45;&gt;valueExpr -->
<g id="edge20" class="edge"><title>tripleConstraint:valueExpr&#45;&gt;valueExpr</title>
<path fill="none" stroke="black" d="M239.269,-734C239.269,-724.952 236.686,-715.562 233.377,-707.245"/>
<polygon fill="black" stroke="black" points="236.546,-705.759 229.269,-698.059 230.156,-708.616 236.546,-705.759"/>
</g>
<!-- tripleConstraint&#45;&gt;pushSemActDown -->
<g id="edge26" class="edge"><title>tripleConstraint:annotation&#45;&gt;pushSemActDown</title>
<path fill="none" stroke="none" d="M606.269,-746C690.276,-746 785.175,-700.744 814.3,-685.757"/>
<polygon fill="none" stroke="none" points="815.988,-688.823 823.185,-681.047 812.71,-682.638 815.988,-688.823"/>
</g>
<!-- tripleConstraint&#45;&gt;semAct -->
<g id="edge30" class="edge"><title>tripleConstraint:semAct&#45;&gt;semAct:semAct</title>
<path fill="none" stroke="mediumvioletred" d="M485.269,-734C485.269,-693.803 536.002,-725.288 571.269,-706 632.152,-672.703 626.111,-608.657 688.157,-602.481"/>
<polygon fill="mediumvioletred" stroke="mediumvioletred" points="688.447,-605.972 698.269,-602 688.114,-598.98 688.447,-605.972"/>
</g>
<!-- tripleConstraint&#45;&gt;annotation -->
<g id="edge34" class="edge"><title>tripleConstraint:annotation&#45;&gt;annotation:annotation</title>
<path fill="none" stroke="mediumvioletred" d="M563.269,-734C563.269,-636.632 534.49,-526.074 623.108,-518.421"/>
<polygon fill="mediumvioletred" stroke="mediumvioletred" points="623.423,-521.911 633.269,-518 623.133,-514.917 623.423,-521.911"/>
</g>
<!-- vcor -->
<g id="node12" class="node"><title>vcor</title>
<polygon fill="white" stroke="black" points="144.269,-579 144.269,-625 294.269,-625 294.269,-579 144.269,-579"/>
<text text-anchor="middle" x="164.769" y="-598.3" font-family="Times,serif" font-size="14.00">vcor</text>
<polyline fill="none" stroke="black" points="185.269,-579 185.269,-625 "/>
<text text-anchor="middle" x="239.769" y="-609.8" font-family="Times,serif" font-size="14.00">valueExprs</text>
<polyline fill="none" stroke="black" points="185.269,-602 294.269,-602 "/>
<text text-anchor="middle" x="239.769" y="-586.8" font-family="Times,serif" font-size="14.00">valueClassOrRef</text>
</g>
<!-- valueExpr&#45;&gt;vcor -->
<g id="edge7" class="edge"><title>valueExpr&#45;&gt;vcor</title>
<path fill="none" stroke="none" d="M219.269,-661.754C219.269,-653.863 219.269,-644.249 219.269,-635.102"/>
<polygon fill="none" stroke="none" points="222.769,-635.091 219.269,-625.091 215.769,-635.091 222.769,-635.091"/>
</g>
<!-- valueClassOrRef -->
<g id="node9" class="node"><title>valueClassOrRef</title>
<text text-anchor="middle" x="255.269" y="-436.3" font-family="Times,serif" font-size="14.00">valueClassOrRef</text>
</g>
<!-- vcref -->
<g id="node11" class="node"><title>vcref</title>
<polygon fill="white" stroke="black" points="177.269,-339 177.269,-385 313.269,-385 313.269,-339 177.269,-339"/>
<text text-anchor="middle" x="199.269" y="-358.3" font-family="Times,serif" font-size="14.00">vcref</text>
<polyline fill="none" stroke="black" points="221.269,-339 221.269,-385 "/>
<text text-anchor="middle" x="267.269" y="-369.8" font-family="Times,serif" font-size="14.00">valueExprRef</text>
<polyline fill="none" stroke="black" points="221.269,-362 313.269,-362 "/>
<text text-anchor="middle" x="267.269" y="-346.8" font-family="Times,serif" font-size="14.00">shapeLabel</text>
</g>
<!-- valueClassOrRef&#45;&gt;vcref -->
<g id="edge5" class="edge"><title>valueClassOrRef&#45;&gt;vcref</title>
<path fill="none" stroke="none" d="M253,-421.754C251.962,-413.863 250.697,-404.249 249.493,-395.102"/>
<polygon fill="none" stroke="none" points="252.951,-394.549 248.176,-385.091 246.011,-395.462 252.951,-394.549"/>
</g>
<!-- valueClass -->
<g id="node10" class="node"><title>valueClass</title>
<polygon fill="white" stroke="black" points="52.7694,-25 52.7694,-301 437.769,-301 437.769,-25 52.7694,-25"/>
<text text-anchor="middle" x="90.2694" y="-159.3" font-family="Times,serif" font-size="14.00">valueClass</text>
<polyline fill="none" stroke="black" points="127.769,-25 127.769,-301 "/>
<text text-anchor="middle" x="189.769" y="-285.8" font-family="Times,serif" font-size="14.00">nodeKind</text>
<polyline fill="none" stroke="black" points="127.769,-278 251.769,-278 "/>
<text text-anchor="middle" x="189.769" y="-262.8" font-family="Times,serif" font-size="14.00">&quot;literal&quot;</text>
<polyline fill="none" stroke="black" points="251.769,-255 251.769,-301 "/>
<text text-anchor="middle" x="307.769" y="-285.8" font-family="Times,serif" font-size="14.00">...*</text>
<polyline fill="none" stroke="black" points="251.769,-278 363.769,-278 "/>
<text text-anchor="middle" x="307.769" y="-262.8" font-family="Times,serif" font-size="14.00">xsFacet</text>
<polyline fill="none" stroke="black" points="363.769,-255 363.769,-301 "/>
<text text-anchor="middle" x="400.769" y="-274.3" font-family="Times,serif" font-size="14.00"> </text>
<polyline fill="none" stroke="black" points="127.769,-255 437.769,-255 "/>
<text text-anchor="middle" x="205.269" y="-239.8" font-family="Times,serif" font-size="14.00">nodeKind</text>
<polyline fill="none" stroke="black" points="127.769,-232 282.769,-232 "/>
<text text-anchor="middle" x="205.269" y="-216.8" font-family="Times,serif" font-size="14.00">&quot;iri&quot;|&quot;bnode&quot;|&quot;nonliteral&quot;</text>
<polyline fill="none" stroke="black" points="282.769,-209 282.769,-255 "/>
<text text-anchor="middle" x="321.769" y="-239.8" font-family="Times,serif" font-size="14.00">reference?</text>
<polyline fill="none" stroke="black" points="282.769,-232 360.769,-232 "/>
<text text-anchor="middle" x="321.769" y="-216.8" font-family="Times,serif" font-size="14.00">shapeLabel</text>
<polyline fill="none" stroke="black" points="360.769,-209 360.769,-255 "/>
<text text-anchor="middle" x="399.269" y="-239.8" font-family="Times,serif" font-size="14.00">...*</text>
<polyline fill="none" stroke="black" points="360.769,-232 437.769,-232 "/>
<text text-anchor="middle" x="399.269" y="-216.8" font-family="Times,serif" font-size="14.00">stringFacet</text>
<polyline fill="none" stroke="black" points="127.769,-209 437.769,-209 "/>
<text text-anchor="middle" x="186.769" y="-193.8" font-family="Times,serif" font-size="14.00">datatype</text>
<polyline fill="none" stroke="black" points="127.769,-186 245.769,-186 "/>
<text text-anchor="middle" x="186.769" y="-170.8" font-family="Times,serif" font-size="14.00">IRI</text>
<polyline fill="none" stroke="black" points="245.769,-163 245.769,-209 "/>
<text text-anchor="middle" x="303.269" y="-193.8" font-family="Times,serif" font-size="14.00">...*</text>
<polyline fill="none" stroke="black" points="245.769,-186 360.769,-186 "/>
<text text-anchor="middle" x="303.269" y="-170.8" font-family="Times,serif" font-size="14.00">xsFacet</text>
<polyline fill="none" stroke="black" points="360.769,-163 360.769,-209 "/>
<text text-anchor="middle" x="399.269" y="-182.3" font-family="Times,serif" font-size="14.00"> </text>
<polyline fill="none" stroke="black" points="127.769,-163 437.769,-163 "/>
<text text-anchor="middle" x="189.269" y="-147.8" font-family="Times,serif" font-size="14.00">reference?</text>
<polyline fill="none" stroke="black" points="127.769,-140 250.769,-140 "/>
<text text-anchor="middle" x="189.269" y="-124.8" font-family="Times,serif" font-size="14.00">shapeLabel</text>
<polyline fill="none" stroke="black" points="250.769,-117 250.769,-163 "/>
<text text-anchor="middle" x="311.769" y="-147.8" font-family="Times,serif" font-size="14.00">...*</text>
<polyline fill="none" stroke="black" points="250.769,-140 372.769,-140 "/>
<text text-anchor="middle" x="311.769" y="-124.8" font-family="Times,serif" font-size="14.00">stringFacet</text>
<polyline fill="none" stroke="black" points="372.769,-117 372.769,-163 "/>
<text text-anchor="middle" x="405.269" y="-136.3" font-family="Times,serif" font-size="14.00"> </text>
<polyline fill="none" stroke="black" points="127.769,-117 437.769,-117 "/>
<text text-anchor="middle" x="226.269" y="-101.8" font-family="Times,serif" font-size="14.00">values</text>
<polyline fill="none" stroke="black" points="127.769,-94 324.769,-94 "/>
<text text-anchor="middle" x="226.269" y="-78.8" font-family="Times,serif" font-size="14.00">[valueSetValue]</text>
<polyline fill="none" stroke="black" points="324.769,-71 324.769,-117 "/>
<text text-anchor="middle" x="381.269" y="-90.3" font-family="Times,serif" font-size="14.00"> </text>
<polyline fill="none" stroke="black" points="127.769,-71 437.769,-71 "/>
<text text-anchor="middle" x="282.769" y="-55.8" font-family="Times,serif" font-size="14.00">#empty      </text>
<polyline fill="none" stroke="black" points="127.769,-48 437.769,-48 "/>
<text text-anchor="middle" x="282.769" y="-32.8" font-family="Times,serif" font-size="14.00">#valueClass</text>
</g>
<!-- vcref&#45;&gt;valueClass -->
<g id="edge6" class="edge"><title>vcref&#45;&gt;valueClass</title>
<path fill="none" stroke="none" d="M240.806,-338.785C240.187,-331.083 239.693,-321.778 239.325,-311.521"/>
<polygon fill="none" stroke="none" points="242.82,-311.303 239.011,-301.416 235.824,-311.52 242.82,-311.303"/>
</g>
<!-- vcref&#45;&gt;valueClass -->
<g id="edge10" class="edge"><title>vcref&#45;&gt;valueClass</title>
<path fill="none" stroke="none" d="M249.733,-338.785C250.352,-331.083 250.846,-321.778 251.213,-311.521"/>
<polygon fill="none" stroke="none" points="254.715,-311.52 251.527,-301.416 247.718,-311.303 254.715,-311.52"/>
</g>
<!-- vcor&#45;&gt;valueClassOrRef -->
<g id="edge21" class="edge"><title>vcor:valueClassOrRef&#45;&gt;valueClassOrRef</title>
<path fill="none" stroke="black" d="M240.269,-578C240.269,-557.73 261.691,-561.173 268.269,-542 276.564,-517.824 271.344,-488.742 265.228,-468.006"/>
<polygon fill="black" stroke="black" points="268.495,-466.731 262.113,-458.274 261.829,-468.865 268.495,-466.731"/>
</g>
<!-- vcand -->
<g id="node13" class="node"><title>vcand</title>
<polygon fill="white" stroke="black" points="102.269,-495 102.269,-541 260.269,-541 260.269,-495 102.269,-495"/>
<text text-anchor="middle" x="126.769" y="-514.3" font-family="Times,serif" font-size="14.00">vcand</text>
<polyline fill="none" stroke="black" points="151.269,-495 151.269,-541 "/>
<text text-anchor="middle" x="205.769" y="-525.8" font-family="Times,serif" font-size="14.00">valueExprs</text>
<polyline fill="none" stroke="black" points="151.269,-518 260.269,-518 "/>
<text text-anchor="middle" x="205.769" y="-502.8" font-family="Times,serif" font-size="14.00">valueClassOrRef</text>
</g>
<!-- vcor&#45;&gt;vcand -->
<g id="edge8" class="edge"><title>vcor&#45;&gt;vcand</title>
<path fill="none" stroke="none" d="M208.886,-578.593C204.831,-569.844 200.113,-559.662 195.735,-550.216"/>
<polygon fill="none" stroke="none" points="198.889,-548.697 191.509,-541.096 192.538,-551.641 198.889,-548.697"/>
</g>
<!-- vcand&#45;&gt;valueClassOrRef -->
<g id="edge22" class="edge"><title>vcand:valueClassOrRef&#45;&gt;valueClassOrRef</title>
<path fill="none" stroke="black" d="M261.269,-506C277.525,-506 273.681,-485.594 267.157,-467.649"/>
<polygon fill="black" stroke="black" points="270.304,-466.088 263.368,-458.078 263.795,-468.664 270.304,-466.088"/>
</g>
<!-- vcand&#45;&gt;vcref -->
<g id="edge9" class="edge"><title>vcand&#45;&gt;vcref</title>
<path fill="none" stroke="none" d="M180.111,-494.875C179.914,-474.953 181.76,-445.309 192.269,-422 197.084,-411.321 204.553,-401.223 212.379,-392.501"/>
<polygon fill="none" stroke="none" points="214.951,-394.874 219.291,-385.209 209.871,-390.058 214.951,-394.874"/>
</g>
<!-- valueExprDefn&#45;&gt;shapeExpr -->
<g id="edge13" class="edge"><title>valueExprDefn&#45;&gt;shapeExpr</title>
<path fill="none" stroke="none" d="M376.796,-1142.61C376.262,-1134.48 375.651,-1125.2 375.09,-1116.67"/>
<polygon fill="none" stroke="none" points="378.564,-1116.16 374.415,-1106.41 371.579,-1116.62 378.564,-1116.16"/>
</g>
<!-- valueExprDefn&#45;&gt;valueExpr -->
<g id="edge19" class="edge"><title>valueExprDefn:valueExpr&#45;&gt;valueExpr</title>
<path fill="none" stroke="black" d="M352.269,-1142C352.269,-1105.09 48.2618,-1139.17 21.2694,-1114 -12.6104,-1082.4 5.26937,-1057.33 5.26937,-1011 5.26937,-1011 5.26937,-1011 5.26937,-841 5.26937,-789.397 -13.6321,-764.011 21.2694,-726 41.3861,-704.091 121.016,-691.513 172.959,-685.484"/>
<polygon fill="black" stroke="black" points="173.404,-688.956 182.952,-684.364 172.625,-681.999 173.404,-688.956"/>
</g>
<!-- valueExprDefn&#45;&gt;semAct -->
<g id="edge27" class="edge"><title>valueExprDefn:semAct&#45;&gt;semAct:semAct</title>
<path fill="none" stroke="mediumvioletred" d="M428.269,-1142C428.269,-1099.54 579.895,-1134.15 617.269,-1114 671.299,-1084.87 709.269,-1072.38 709.269,-1011 709.269,-1011 709.269,-1011 709.269,-757 709.269,-701.669 726.921,-686.664 729.058,-636.216"/>
<polygon fill="mediumvioletred" stroke="mediumvioletred" points="732.562,-636.07 729.269,-626 725.563,-635.926 732.562,-636.07"/>
</g>
<!-- valueExprDefn&#45;&gt;annotation -->
<g id="edge31" class="edge"><title>valueExprDefn:annotation&#45;&gt;annotation:annotation</title>
<path fill="none" stroke="mediumvioletred" d="M549.269,-1154C604.224,-1154 622.346,-1147.03 666.269,-1114 746.806,-1053.44 899.269,-909.035 899.269,-759 899.269,-759 899.269,-759 899.269,-679 899.269,-633.239 912.015,-609.965 879.269,-578 848.456,-547.92 698.939,-582.258 674.617,-551.808"/>
<polygon fill="mediumvioletred" stroke="mediumvioletred" points="677.812,-550.333 671.269,-542 671.187,-552.595 677.812,-550.333"/>
</g>
<!-- pushSemActDown&#45;&gt;semAct -->
<g id="edge24" class="edge"><title>pushSemActDown&#45;&gt;semAct:STRING</title>
<path fill="none" stroke="none" d="M823.373,-678.932C825.505,-677.525 859.797,-654.57 871.269,-626 875.277,-616.02 881.576,-603.2 880.424,-595.861"/>
<polygon fill="none" stroke="none" points="882.432,-592.994 872.269,-590 878.347,-598.678 882.432,-592.994"/>
</g>
<!-- semAct&#45;&gt;annotation -->
<g id="edge25" class="edge"><title>semAct:STRING&#45;&gt;annotation</title>
<path fill="none" stroke="none" d="M838.269,-578C838.269,-565.223 831.875,-555.074 822.477,-547.058"/>
<polygon fill="none" stroke="none" points="824.487,-544.191 814.36,-541.077 820.334,-549.827 824.487,-544.191"/>
</g>
</g>
</svg>
