<?xml version="1.0" encoding="UTF-8" standalone="no"?>
<!DOCTYPE svg PUBLIC "-//W3C//DTD SVG 1.1//EN"
 "http://www.w3.org/Graphics/SVG/1.1/DTD/svg11.dtd">
<!-- Generated by graphviz version 2.36.0 (20140111.2315)
 -->
<!-- Title: structs Pages: 1 -->
<svg width="921pt" height="1372pt"
 viewBox="0.00 0.00 921.26 1372.00" xmlns="http://www.w3.org/2000/svg" xmlns:xlink="http://www.w3.org/1999/xlink">
<g id="graph0" class="graph" transform="scale(1 1) rotate(0) translate(4 1368)">
<title>structs</title>
<polygon fill="white" stroke="none" points="-4,4 -4,-1368 917.257,-1368 917.257,4 -4,4"/>
<g id="clust1" class="cluster"><title>cluster_shapeExpr</title>
<polygon fill="#cccccc" stroke="black" points="25.2569,-730 25.2569,-1120 619.257,-1120 619.257,-730 25.2569,-730"/>
</g>
<g id="clust2" class="cluster"><title>cluster_valueExpr</title>
<polygon fill="#cccccc" stroke="black" points="36.2569,-8 36.2569,-710 456.257,-710 456.257,-8 36.2569,-8"/>
</g>
<g id="clust3" class="cluster"><title>cluster_valueClassOrRef</title>
<polygon fill="#b3b3b3" stroke="black" points="44.2569,-16 44.2569,-468 448.257,-468 448.257,-16 44.2569,-16"/>
</g>
<!-- Schema -->
<g id="node1" class="node"><title>Schema</title>
<polygon fill="none" stroke="black" points="224.757,-1317 224.757,-1363 913.757,-1363 913.757,-1317 224.757,-1317"/>
<text text-anchor="middle" x="256.757" y="-1336.3" font-family="Times,serif" font-size="14.00">Schema:</text>
<polyline fill="none" stroke="black" points="288.757,-1317 288.757,-1363 "/>
<text text-anchor="middle" x="349.257" y="-1347.8" font-family="Times,serif" font-size="14.00">prefixes?</text>
<polyline fill="none" stroke="black" points="288.757,-1340 409.757,-1340 "/>
<text text-anchor="middle" x="329.757" y="-1324.8" font-family="Times,serif" font-size="14.00">[PREFIX→</text>
<polyline fill="none" stroke="black" points="370.757,-1317 370.757,-1340 "/>
<text text-anchor="middle" x="390.257" y="-1324.8" font-family="Times,serif" font-size="14.00">IRI]</text>
<polyline fill="none" stroke="black" points="409.757,-1317 409.757,-1363 "/>
<text text-anchor="middle" x="511.757" y="-1347.8" font-family="Times,serif" font-size="14.00">valueExprDefns?</text>
<polyline fill="none" stroke="black" points="409.757,-1340 613.757,-1340 "/>
<text text-anchor="middle" x="458.257" y="-1324.8" font-family="Times,serif" font-size="14.00">[shapeLabel→</text>
<polyline fill="none" stroke="black" points="506.757,-1317 506.757,-1340 "/>
<text text-anchor="middle" x="560.257" y="-1324.8" font-family="Times,serif" font-size="14.00">ValueExprDefn]</text>
<polyline fill="none" stroke="black" points="613.757,-1317 613.757,-1363 "/>
<text text-anchor="middle" x="649.257" y="-1347.8" font-family="Times,serif" font-size="14.00">startActs?</text>
<polyline fill="none" stroke="black" points="613.757,-1340 684.757,-1340 "/>
<text text-anchor="middle" x="649.257" y="-1324.8" font-family="Times,serif" font-size="14.00">[semact]</text>
<polyline fill="none" stroke="black" points="684.757,-1317 684.757,-1363 "/>
<text text-anchor="middle" x="723.757" y="-1347.8" font-family="Times,serif" font-size="14.00">start?</text>
<polyline fill="none" stroke="black" points="684.757,-1340 762.757,-1340 "/>
<text text-anchor="middle" x="723.757" y="-1324.8" font-family="Times,serif" font-size="14.00">shapeLabel</text>
<polyline fill="none" stroke="black" points="762.757,-1317 762.757,-1363 "/>
<text text-anchor="middle" x="838.257" y="-1347.8" font-family="Times,serif" font-size="14.00">shapes?</text>
<polyline fill="none" stroke="black" points="762.757,-1340 913.757,-1340 "/>
<text text-anchor="middle" x="811.257" y="-1324.8" font-family="Times,serif" font-size="14.00">[shapeLabel→</text>
<polyline fill="none" stroke="black" points="859.757,-1317 859.757,-1340 "/>
<text text-anchor="middle" x="886.757" y="-1324.8" font-family="Times,serif" font-size="14.00">Shape]</text>
</g>
<!-- Shape -->
<g id="node2" class="node"><title>Shape</title>
<polygon fill="none" stroke="black" points="366.757,-1233 366.757,-1279 821.757,-1279 821.757,-1233 366.757,-1233"/>
<text text-anchor="middle" x="393.257" y="-1252.3" font-family="Times,serif" font-size="14.00">Shape:</text>
<polyline fill="none" stroke="black" points="419.757,-1233 419.757,-1279 "/>
<text text-anchor="middle" x="448.757" y="-1263.8" font-family="Times,serif" font-size="14.00">virtual?</text>
<polyline fill="none" stroke="black" points="419.757,-1256 477.757,-1256 "/>
<text text-anchor="middle" x="448.757" y="-1240.8" font-family="Times,serif" font-size="14.00">BOOL</text>
<polyline fill="none" stroke="black" points="477.757,-1233 477.757,-1279 "/>
<text text-anchor="middle" x="506.257" y="-1263.8" font-family="Times,serif" font-size="14.00">closed?</text>
<polyline fill="none" stroke="black" points="477.757,-1256 534.757,-1256 "/>
<text text-anchor="middle" x="506.257" y="-1240.8" font-family="Times,serif" font-size="14.00">BOOL</text>
<polyline fill="none" stroke="black" points="534.757,-1233 534.757,-1279 "/>
<text text-anchor="middle" x="559.757" y="-1263.8" font-family="Times,serif" font-size="14.00">extra?</text>
<polyline fill="none" stroke="black" points="534.757,-1256 584.757,-1256 "/>
<text text-anchor="middle" x="559.757" y="-1240.8" font-family="Times,serif" font-size="14.00">[IRI]</text>
<polyline fill="none" stroke="black" points="584.757,-1233 584.757,-1279 "/>
<text text-anchor="middle" x="624.757" y="-1263.8" font-family="Times,serif" font-size="14.00">expression?</text>
<polyline fill="none" stroke="black" points="584.757,-1256 664.757,-1256 "/>
<text text-anchor="middle" x="624.757" y="-1240.8" font-family="Times,serif" font-size="14.00">shapeExpr</text>
<polyline fill="none" stroke="black" points="664.757,-1233 664.757,-1279 "/>
<text text-anchor="middle" x="708.257" y="-1263.8" font-family="Times,serif" font-size="14.00">inherit?</text>
<polyline fill="none" stroke="black" points="664.757,-1256 751.757,-1256 "/>
<text text-anchor="middle" x="708.257" y="-1240.8" font-family="Times,serif" font-size="14.00">[shapeLabel]</text>
<polyline fill="none" stroke="black" points="751.757,-1233 751.757,-1279 "/>
<text text-anchor="middle" x="786.757" y="-1263.8" font-family="Times,serif" font-size="14.00">semActs?</text>
<polyline fill="none" stroke="black" points="751.757,-1256 821.757,-1256 "/>
<text text-anchor="middle" x="786.757" y="-1240.8" font-family="Times,serif" font-size="14.00">[SemAct]</text>
</g>
<!-- Schema&#45;&gt;Shape -->
<g id="edge11" class="edge"><title>Schema:Schema&#45;&gt;Shape:Shape</title>
<path fill="none" stroke="none" d="M256.257,-1316C256.257,-1256.98 376.667,-1332.31 391.718,-1290.09"/>
<polygon fill="none" stroke="none" points="395.209,-1290.41 393.257,-1280 388.289,-1289.36 395.209,-1290.41"/>
</g>
<!-- Schema&#45;&gt;Shape -->
<g id="edge17" class="edge"><title>Schema:Shape&#45;&gt;Shape:Shape</title>
<path fill="none" stroke="black" d="M887.257,-1316C887.257,-1209.59 425.517,-1378.17 394.855,-1290.01"/>
<polygon fill="black" stroke="black" points="398.289,-1289.32 393.257,-1280 391.376,-1290.43 398.289,-1289.32"/>
</g>
<!-- ValueExprDefn -->
<g id="node14" class="node"><title>ValueExprDefn</title>
<polygon fill="none" stroke="black" points="216.757,-1149 216.757,-1195 559.757,-1195 559.757,-1149 216.757,-1149"/>
<text text-anchor="middle" x="269.757" y="-1168.3" font-family="Times,serif" font-size="14.00">ValueExprDefn:</text>
<polyline fill="none" stroke="black" points="322.757,-1149 322.757,-1195 "/>
<text text-anchor="middle" x="363.257" y="-1179.8" font-family="Times,serif" font-size="14.00">valueExpr</text>
<polyline fill="none" stroke="black" points="322.757,-1172 403.757,-1172 "/>
<text text-anchor="middle" x="363.257" y="-1156.8" font-family="Times,serif" font-size="14.00">[valueExpr]</text>
<polyline fill="none" stroke="black" points="403.757,-1149 403.757,-1195 "/>
<text text-anchor="middle" x="438.757" y="-1179.8" font-family="Times,serif" font-size="14.00">semActs?</text>
<polyline fill="none" stroke="black" points="403.757,-1172 473.757,-1172 "/>
<text text-anchor="middle" x="438.757" y="-1156.8" font-family="Times,serif" font-size="14.00">[SemAct]</text>
<polyline fill="none" stroke="black" points="473.757,-1149 473.757,-1195 "/>
<text text-anchor="middle" x="516.757" y="-1179.8" font-family="Times,serif" font-size="14.00">annotations?</text>
<polyline fill="none" stroke="black" points="473.757,-1172 559.757,-1172 "/>
<text text-anchor="middle" x="516.757" y="-1156.8" font-family="Times,serif" font-size="14.00">[Annotation]</text>
</g>
<!-- Schema&#45;&gt;ValueExprDefn -->
<g id="edge18" class="edge"><title>Schema:ValueExprDefn&#45;&gt;ValueExprDefn</title>
<path fill="none" stroke="black" d="M560.257,-1316C560.257,-1224.81 416.81,-1349.91 358.257,-1280 340.243,-1258.49 352.375,-1226.89 366.217,-1203.61"/>
<polygon fill="black" stroke="black" points="369.188,-1205.46 371.547,-1195.13 363.262,-1201.73 369.188,-1205.46"/>
</g>
<!-- pushSemActDown -->
<g id="node15" class="node"><title>pushSemActDown</title>
<polygon fill="none" stroke="black" points="821.257,-671.5 821.257,-694.5 841.257,-694.5 841.257,-671.5 821.257,-671.5"/>
<text text-anchor="middle" x="831.257" y="-679.3" font-family="Times,serif" font-size="14.00"> </text>
</g>
<!-- Schema&#45;&gt;pushSemActDown -->
<g id="edge23" class="edge"><title>Schema:Shape&#45;&gt;pushSemActDown</title>
<path fill="none" stroke="none" d="M887.257,-1316C887.257,-1252.44 887.257,-1236.56 887.257,-1173 887.257,-1173 887.257,-1173 887.257,-1092 887.257,-942.214 849.754,-764.346 836.129,-704.669"/>
<polygon fill="none" stroke="none" points="839.473,-703.596 833.809,-694.643 832.653,-705.175 839.473,-703.596"/>
</g>
<!-- SemAct -->
<g id="node16" class="node"><title>SemAct</title>
<polygon fill="none" stroke="mediumvioletred" points="705.757,-581 705.757,-627 878.757,-627 878.757,-581 705.757,-581"/>
<text text-anchor="middle" x="736.257" y="-600.3" font-family="Times,serif" font-size="14.00">SemAct</text>
<polyline fill="none" stroke="mediumvioletred" points="766.757,-581 766.757,-627 "/>
<text text-anchor="middle" x="790.257" y="-611.8" font-family="Times,serif" font-size="14.00">name</text>
<polyline fill="none" stroke="mediumvioletred" points="766.757,-604 813.757,-604 "/>
<text text-anchor="middle" x="790.257" y="-588.8" font-family="Times,serif" font-size="14.00">IRI</text>
<polyline fill="none" stroke="mediumvioletred" points="813.757,-581 813.757,-627 "/>
<text text-anchor="middle" x="846.257" y="-611.8" font-family="Times,serif" font-size="14.00">code</text>
<polyline fill="none" stroke="mediumvioletred" points="813.757,-604 878.757,-604 "/>
<text text-anchor="middle" x="846.257" y="-588.8" font-family="Times,serif" font-size="14.00">STRING</text>
</g>
<!-- Schema&#45;&gt;SemAct -->
<g id="edge28" class="edge"><title>Schema:SemAct&#45;&gt;SemAct:SemAct</title>
<path fill="none" stroke="mediumvioletred" d="M649.257,-1316C649.257,-1233.98 772.86,-1338.59 830.257,-1280 864.056,-1245.5 849.257,-1221.3 849.257,-1173 849.257,-1173 849.257,-1173 849.257,-1092 849.257,-982.749 869.257,-956.251 869.257,-847 869.257,-847 869.257,-847 869.257,-761 869.257,-717.07 879.526,-696.76 850.257,-664 817.484,-627.318 747.686,-673.239 737.506,-638.099"/>
<polygon fill="mediumvioletred" stroke="mediumvioletred" points="740.958,-637.495 736.257,-628 734.011,-638.354 740.958,-637.495"/>
</g>
<!-- shapeExpr -->
<g id="node3" class="node"><title>shapeExpr</title>
<polygon fill="none" stroke="black" points="340.257,-1075 340.257,-1111 414.257,-1111 414.257,-1075 340.257,-1075"/>
<text text-anchor="middle" x="377.257" y="-1089.3" font-family="Times,serif" font-size="14.00">shapeExpr</text>
</g>
<!-- Shape&#45;&gt;shapeExpr -->
<g id="edge14" class="edge"><title>Shape:shapeExpr&#45;&gt;shapeExpr</title>
<path fill="none" stroke="black" d="M625.257,-1232C625.257,-1141.13 496.541,-1109.56 424.57,-1099.02"/>
<polygon fill="black" stroke="black" points="424.77,-1095.51 414.385,-1097.61 423.811,-1102.45 424.77,-1095.51"/>
</g>
<!-- Shape&#45;&gt;ValueExprDefn -->
<g id="edge12" class="edge"><title>Shape:Shape&#45;&gt;ValueExprDefn</title>
<path fill="none" stroke="none" d="M393.257,-1232C393.257,-1223.3 392.711,-1213.91 391.98,-1205.23"/>
<polygon fill="none" stroke="none" points="395.447,-1204.72 391.02,-1195.1 388.478,-1205.38 395.447,-1204.72"/>
</g>
<!-- Shape&#45;&gt;SemAct -->
<g id="edge29" class="edge"><title>Shape:SemAct&#45;&gt;SemAct:SemAct</title>
<path fill="none" stroke="mediumvioletred" d="M787.257,-1232C787.257,-1170.61 793.257,-1155.39 793.257,-1094 793.257,-1094 793.257,-1094 793.257,-761 793.257,-700.206 742.321,-692.969 736.75,-638.033"/>
<polygon fill="mediumvioletred" stroke="mediumvioletred" points="740.243,-637.816 736.257,-628 733.252,-638.16 740.243,-637.816"/>
</g>
<!-- EachOf -->
<g id="node4" class="node"><title>EachOf</title>
<polygon fill="white" stroke="black" points="143.757,-991 143.757,-1037 610.757,-1037 610.757,-991 143.757,-991"/>
<text text-anchor="middle" x="172.757" y="-1010.3" font-family="Times,serif" font-size="14.00">EachOf</text>
<polyline fill="none" stroke="black" points="201.757,-991 201.757,-1037 "/>
<text text-anchor="middle" x="243.257" y="-1021.8" font-family="Times,serif" font-size="14.00">expressions</text>
<polyline fill="none" stroke="black" points="201.757,-1014 284.757,-1014 "/>
<text text-anchor="middle" x="243.257" y="-998.8" font-family="Times,serif" font-size="14.00">[shapeExpr]</text>
<polyline fill="none" stroke="black" points="284.757,-991 284.757,-1037 "/>
<text text-anchor="middle" x="321.757" y="-1021.8" font-family="Times,serif" font-size="14.00">min?</text>
<polyline fill="none" stroke="black" points="284.757,-1014 358.757,-1014 "/>
<text text-anchor="middle" x="321.757" y="-998.8" font-family="Times,serif" font-size="14.00">INTEGER</text>
<polyline fill="none" stroke="black" points="358.757,-991 358.757,-1037 "/>
<text text-anchor="middle" x="406.757" y="-1021.8" font-family="Times,serif" font-size="14.00">max?</text>
<polyline fill="none" stroke="black" points="358.757,-1014 454.757,-1014 "/>
<text text-anchor="middle" x="406.757" y="-998.8" font-family="Times,serif" font-size="14.00">INTEGER|&quot;*&quot;</text>
<polyline fill="none" stroke="black" points="454.757,-991 454.757,-1037 "/>
<text text-anchor="middle" x="489.757" y="-1021.8" font-family="Times,serif" font-size="14.00">semActs?</text>
<polyline fill="none" stroke="black" points="454.757,-1014 524.757,-1014 "/>
<text text-anchor="middle" x="489.757" y="-998.8" font-family="Times,serif" font-size="14.00">[SemAct]</text>
<polyline fill="none" stroke="black" points="524.757,-991 524.757,-1037 "/>
<text text-anchor="middle" x="567.757" y="-1021.8" font-family="Times,serif" font-size="14.00">annotations?</text>
<polyline fill="none" stroke="black" points="524.757,-1014 610.757,-1014 "/>
<text text-anchor="middle" x="567.757" y="-998.8" font-family="Times,serif" font-size="14.00">[Annotation]</text>
</g>
<!-- shapeExpr&#45;&gt;EachOf -->
<g id="edge1" class="edge"><title>shapeExpr&#45;&gt;EachOf</title>
<path fill="none" stroke="none" d="M377.257,-1074.91C377.257,-1066.71 377.257,-1056.61 377.257,-1047.06"/>
<polygon fill="none" stroke="none" points="380.757,-1047.02 377.257,-1037.02 373.757,-1047.02 380.757,-1047.02"/>
</g>
<!-- EachOf&#45;&gt;shapeExpr -->
<g id="edge15" class="edge"><title>EachOf:shapeExpr&#45;&gt;shapeExpr</title>
<path fill="none" stroke="black" d="M243.257,-990C243.257,-967.888 159.314,-975.286 143.757,-991 129.061,-1005.84 130.756,-1021.65 143.757,-1038 166.523,-1066.63 268.166,-1081.41 329.597,-1087.85"/>
<polygon fill="black" stroke="black" points="329.53,-1091.36 339.831,-1088.89 330.235,-1084.4 329.53,-1091.36"/>
</g>
<!-- OneOf -->
<g id="node5" class="node"><title>OneOf</title>
<polygon fill="white" stroke="black" points="126.757,-907 126.757,-953 597.757,-953 597.757,-907 126.757,-907"/>
<text text-anchor="middle" x="157.757" y="-926.3" font-family="Times,serif" font-size="14.00">OneOf</text>
<polyline fill="none" stroke="black" points="188.757,-907 188.757,-953 "/>
<text text-anchor="middle" x="230.257" y="-937.8" font-family="Times,serif" font-size="14.00">expressions</text>
<polyline fill="none" stroke="black" points="188.757,-930 271.757,-930 "/>
<text text-anchor="middle" x="230.257" y="-914.8" font-family="Times,serif" font-size="14.00">[shapeExpr]</text>
<polyline fill="none" stroke="black" points="271.757,-907 271.757,-953 "/>
<text text-anchor="middle" x="308.757" y="-937.8" font-family="Times,serif" font-size="14.00">min?</text>
<polyline fill="none" stroke="black" points="271.757,-930 345.757,-930 "/>
<text text-anchor="middle" x="308.757" y="-914.8" font-family="Times,serif" font-size="14.00">INTEGER</text>
<polyline fill="none" stroke="black" points="345.757,-907 345.757,-953 "/>
<text text-anchor="middle" x="393.757" y="-937.8" font-family="Times,serif" font-size="14.00">max?</text>
<polyline fill="none" stroke="black" points="345.757,-930 441.757,-930 "/>
<text text-anchor="middle" x="393.757" y="-914.8" font-family="Times,serif" font-size="14.00">INTEGER|&quot;*&quot;</text>
<polyline fill="none" stroke="black" points="441.757,-907 441.757,-953 "/>
<text text-anchor="middle" x="476.757" y="-937.8" font-family="Times,serif" font-size="14.00">semActs?</text>
<polyline fill="none" stroke="black" points="441.757,-930 511.757,-930 "/>
<text text-anchor="middle" x="476.757" y="-914.8" font-family="Times,serif" font-size="14.00">[SemAct]</text>
<polyline fill="none" stroke="black" points="511.757,-907 511.757,-953 "/>
<text text-anchor="middle" x="554.757" y="-937.8" font-family="Times,serif" font-size="14.00">annotations?</text>
<polyline fill="none" stroke="black" points="511.757,-930 597.757,-930 "/>
<text text-anchor="middle" x="554.757" y="-914.8" font-family="Times,serif" font-size="14.00">[Annotation]</text>
</g>
<!-- EachOf&#45;&gt;OneOf -->
<g id="edge2" class="edge"><title>EachOf&#45;&gt;OneOf</title>
<path fill="none" stroke="none" d="M373.158,-990.593C371.608,-982.118 369.811,-972.297 368.13,-963.104"/>
<polygon fill="none" stroke="none" points="371.541,-962.303 366.299,-953.096 364.655,-963.562 371.541,-962.303"/>
</g>
<!-- Annotation -->
<g id="node17" class="node"><title>Annotation</title>
<polygon fill="none" stroke="mediumvioletred" points="638.757,-497 638.757,-543 867.757,-543 867.757,-497 638.757,-497"/>
<text text-anchor="middle" x="677.257" y="-516.3" font-family="Times,serif" font-size="14.00">Annotation</text>
<polyline fill="none" stroke="mediumvioletred" points="715.757,-497 715.757,-543 "/>
<text text-anchor="middle" x="748.757" y="-527.8" font-family="Times,serif" font-size="14.00">predicate</text>
<polyline fill="none" stroke="mediumvioletred" points="715.757,-520 781.757,-520 "/>
<text text-anchor="middle" x="748.757" y="-504.8" font-family="Times,serif" font-size="14.00">IRI</text>
<polyline fill="none" stroke="mediumvioletred" points="781.757,-497 781.757,-543 "/>
<text text-anchor="middle" x="824.757" y="-527.8" font-family="Times,serif" font-size="14.00">object</text>
<polyline fill="none" stroke="mediumvioletred" points="781.757,-520 867.757,-520 "/>
<text text-anchor="middle" x="824.757" y="-504.8" font-family="Times,serif" font-size="14.00">STRING|IRI</text>
</g>
<!-- EachOf&#45;&gt;Annotation -->
<g id="edge32" class="edge"><title>EachOf:Annotation&#45;&gt;Annotation:Annotation</title>
<path fill="none" stroke="mediumvioletred" d="M612.257,-1002C686.958,-1002 677.257,-921.701 677.257,-847 677.257,-847 677.257,-847 677.257,-682 677.257,-624.26 677.257,-607.288 677.257,-554.326"/>
<polygon fill="mediumvioletred" stroke="mediumvioletred" points="680.757,-554 677.257,-544 673.757,-554 680.757,-554"/>
</g>
<!-- OneOf&#45;&gt;shapeExpr -->
<g id="edge16" class="edge"><title>OneOf:shapeExpr&#45;&gt;shapeExpr</title>
<path fill="none" stroke="black" d="M230.257,-906C230.257,-882.999 142.942,-890.657 126.757,-907 85.7007,-948.455 96.5206,-994.37 135.257,-1038 160.57,-1066.51 266.72,-1081.42 329.717,-1087.9"/>
<polygon fill="black" stroke="black" points="329.519,-1091.4 339.816,-1088.91 330.212,-1084.43 329.519,-1091.4"/>
</g>
<!-- Inclusion -->
<g id="node6" class="node"><title>Inclusion</title>
<polygon fill="white" stroke="black" points="262.757,-823 262.757,-869 407.757,-869 407.757,-823 262.757,-823"/>
<text text-anchor="middle" x="296.257" y="-842.3" font-family="Times,serif" font-size="14.00">Inclusion</text>
<polyline fill="none" stroke="black" points="329.757,-823 329.757,-869 "/>
<text text-anchor="middle" x="368.757" y="-853.8" font-family="Times,serif" font-size="14.00">include</text>
<polyline fill="none" stroke="black" points="329.757,-846 407.757,-846 "/>
<text text-anchor="middle" x="368.757" y="-830.8" font-family="Times,serif" font-size="14.00">shapeLabel</text>
</g>
<!-- OneOf&#45;&gt;Inclusion -->
<g id="edge3" class="edge"><title>OneOf&#45;&gt;Inclusion</title>
<path fill="none" stroke="none" d="M354.879,-906.593C352.058,-898.027 348.785,-888.086 345.73,-878.808"/>
<polygon fill="none" stroke="none" points="348.984,-877.5 342.532,-869.096 342.335,-879.689 348.984,-877.5"/>
</g>
<!-- OneOf&#45;&gt;Annotation -->
<g id="edge33" class="edge"><title>OneOf:Annotation&#45;&gt;Annotation:Annotation</title>
<path fill="none" stroke="mediumvioletred" d="M599.257,-918C670.403,-918 639.257,-834.146 639.257,-763 639.257,-763 639.257,-763 639.257,-682 639.257,-635.429 649.45,-624.478 663.257,-580 667.154,-567.447 673.29,-563.076 675.952,-554.013"/>
<polygon fill="mediumvioletred" stroke="mediumvioletred" points="679.436,-554.368 677.257,-544 672.494,-553.464 679.436,-554.368"/>
</g>
<!-- TripleConstraint -->
<g id="node7" class="node"><title>TripleConstraint</title>
<polygon fill="white" stroke="black" points="33.2569,-739 33.2569,-785 611.257,-785 611.257,-739 33.2569,-739"/>
<text text-anchor="middle" x="86.2569" y="-758.3" font-family="Times,serif" font-size="14.00">TripleConstraint</text>
<polyline fill="none" stroke="black" points="139.257,-739 139.257,-785 "/>
<text text-anchor="middle" x="171.757" y="-769.8" font-family="Times,serif" font-size="14.00">negated?</text>
<polyline fill="none" stroke="black" points="139.257,-762 204.257,-762 "/>
<text text-anchor="middle" x="171.757" y="-746.8" font-family="Times,serif" font-size="14.00">BOOL</text>
<polyline fill="none" stroke="black" points="204.257,-739 204.257,-785 "/>
<text text-anchor="middle" x="244.757" y="-769.8" font-family="Times,serif" font-size="14.00">valueExpr</text>
<polyline fill="none" stroke="black" points="204.257,-762 285.257,-762 "/>
<text text-anchor="middle" x="244.757" y="-746.8" font-family="Times,serif" font-size="14.00">[valueExpr]</text>
<polyline fill="none" stroke="black" points="285.257,-739 285.257,-785 "/>
<text text-anchor="middle" x="322.257" y="-769.8" font-family="Times,serif" font-size="14.00">min?</text>
<polyline fill="none" stroke="black" points="285.257,-762 359.257,-762 "/>
<text text-anchor="middle" x="322.257" y="-746.8" font-family="Times,serif" font-size="14.00">INTEGER</text>
<polyline fill="none" stroke="black" points="359.257,-739 359.257,-785 "/>
<text text-anchor="middle" x="407.257" y="-769.8" font-family="Times,serif" font-size="14.00">max?</text>
<polyline fill="none" stroke="black" points="359.257,-762 455.257,-762 "/>
<text text-anchor="middle" x="407.257" y="-746.8" font-family="Times,serif" font-size="14.00">INTEGER|&quot;*&quot;</text>
<polyline fill="none" stroke="black" points="455.257,-739 455.257,-785 "/>
<text text-anchor="middle" x="490.257" y="-769.8" font-family="Times,serif" font-size="14.00">semActs?</text>
<polyline fill="none" stroke="black" points="455.257,-762 525.257,-762 "/>
<text text-anchor="middle" x="490.257" y="-746.8" font-family="Times,serif" font-size="14.00">[SemAct]</text>
<polyline fill="none" stroke="black" points="525.257,-739 525.257,-785 "/>
<text text-anchor="middle" x="568.257" y="-769.8" font-family="Times,serif" font-size="14.00">annotations?</text>
<polyline fill="none" stroke="black" points="525.257,-762 611.257,-762 "/>
<text text-anchor="middle" x="568.257" y="-746.8" font-family="Times,serif" font-size="14.00">[Annotation]</text>
</g>
<!-- Inclusion&#45;&gt;TripleConstraint -->
<g id="edge4" class="edge"><title>Inclusion&#45;&gt;TripleConstraint</title>
<path fill="none" stroke="none" d="M331.705,-822.593C330.361,-814.118 328.804,-804.297 327.347,-795.104"/>
<polygon fill="none" stroke="none" points="330.783,-794.424 325.76,-785.096 323.869,-795.521 330.783,-794.424"/>
</g>
<!-- valueExpr -->
<g id="node8" class="node"><title>valueExpr</title>
<polygon fill="none" stroke="black" points="186.257,-665 186.257,-701 258.257,-701 258.257,-665 186.257,-665"/>
<text text-anchor="middle" x="222.257" y="-679.3" font-family="Times,serif" font-size="14.00">valueExpr</text>
</g>
<!-- TripleConstraint&#45;&gt;valueExpr -->
<g id="edge20" class="edge"><title>TripleConstraint:valueExpr&#45;&gt;valueExpr</title>
<path fill="none" stroke="black" d="M244.257,-738C244.257,-728.585 241.353,-718.885 237.656,-710.348"/>
<polygon fill="black" stroke="black" points="240.771,-708.751 233.257,-701.282 234.474,-711.806 240.771,-708.751"/>
</g>
<!-- TripleConstraint&#45;&gt;pushSemActDown -->
<g id="edge26" class="edge"><title>TripleConstraint:Annotation&#45;&gt;pushSemActDown</title>
<path fill="none" stroke="none" d="M612.257,-750C688.844,-750 774.334,-712.539 811.843,-694.062"/>
<polygon fill="none" stroke="none" points="813.744,-697.024 821.102,-689.401 810.596,-690.771 813.744,-697.024"/>
</g>
<!-- TripleConstraint&#45;&gt;SemAct -->
<g id="edge30" class="edge"><title>TripleConstraint:SemAct&#45;&gt;SemAct:SemAct</title>
<path fill="none" stroke="mediumvioletred" d="M490.257,-738C490.257,-697.38 541.677,-729.597 577.257,-710 638.512,-676.262 631.622,-610.804 694.072,-604.492"/>
<polygon fill="mediumvioletred" stroke="mediumvioletred" points="694.437,-607.979 704.257,-604 694.1,-600.987 694.437,-607.979"/>
</g>
<!-- TripleConstraint&#45;&gt;Annotation -->
<g id="edge34" class="edge"><title>TripleConstraint:Annotation&#45;&gt;Annotation:Annotation</title>
<path fill="none" stroke="mediumvioletred" d="M568.257,-738C568.257,-639.947 537.884,-528.164 627.029,-520.426"/>
<polygon fill="mediumvioletred" stroke="mediumvioletred" points="627.411,-523.913 637.257,-520 627.12,-516.919 627.411,-523.913"/>
</g>
<!-- ValueOr -->
<g id="node12" class="node"><title>ValueOr</title>
<polygon fill="white" stroke="black" points="136.257,-581 136.257,-627 308.257,-627 308.257,-581 136.257,-581"/>
<text text-anchor="middle" x="167.757" y="-600.3" font-family="Times,serif" font-size="14.00">ValueOr</text>
<polyline fill="none" stroke="black" points="199.257,-581 199.257,-627 "/>
<text text-anchor="middle" x="253.757" y="-611.8" font-family="Times,serif" font-size="14.00">valueExprs</text>
<polyline fill="none" stroke="black" points="199.257,-604 308.257,-604 "/>
<text text-anchor="middle" x="253.757" y="-588.8" font-family="Times,serif" font-size="14.00">valueClassOrRef</text>
</g>
<!-- valueExpr&#45;&gt;ValueOr -->
<g id="edge7" class="edge"><title>valueExpr&#45;&gt;ValueOr</title>
<path fill="none" stroke="none" d="M222.257,-664.911C222.257,-656.712 222.257,-646.613 222.257,-637.058"/>
<polygon fill="none" stroke="none" points="225.757,-637.02 222.257,-627.02 218.757,-637.02 225.757,-637.02"/>
</g>
<!-- valueClassOrRef -->
<g id="node9" class="node"><title>valueClassOrRef</title>
<polygon fill="none" stroke="black" points="202.757,-423 202.757,-459 311.757,-459 311.757,-423 202.757,-423"/>
<text text-anchor="middle" x="257.257" y="-437.3" font-family="Times,serif" font-size="14.00">valueClassOrRef</text>
</g>
<!-- ValueRef -->
<g id="node11" class="node"><title>ValueRef</title>
<polygon fill="white" stroke="black" points="166.257,-339 166.257,-385 326.257,-385 326.257,-339 166.257,-339"/>
<text text-anchor="middle" x="200.257" y="-358.3" font-family="Times,serif" font-size="14.00">ValueRef</text>
<polyline fill="none" stroke="black" points="234.257,-339 234.257,-385 "/>
<text text-anchor="middle" x="280.257" y="-369.8" font-family="Times,serif" font-size="14.00">valueExprRef</text>
<polyline fill="none" stroke="black" points="234.257,-362 326.257,-362 "/>
<text text-anchor="middle" x="280.257" y="-346.8" font-family="Times,serif" font-size="14.00">shapeLabel</text>
</g>
<!-- valueClassOrRef&#45;&gt;ValueRef -->
<g id="edge5" class="edge"><title>valueClassOrRef&#45;&gt;ValueRef</title>
<path fill="none" stroke="none" d="M254.816,-422.911C253.644,-414.712 252.202,-404.613 250.837,-395.058"/>
<polygon fill="none" stroke="none" points="254.282,-394.425 249.403,-385.02 247.352,-395.415 254.282,-394.425"/>
</g>
<!-- ValueClass -->
<g id="node10" class="node"><title>ValueClass</title>
<polygon fill="white" stroke="black" points="52.2569,-25 52.2569,-301 440.257,-301 440.257,-25 52.2569,-25"/>
<text text-anchor="middle" x="91.2569" y="-159.3" font-family="Times,serif" font-size="14.00">ValueClass</text>
<polyline fill="none" stroke="black" points="130.257,-25 130.257,-301 "/>
<text text-anchor="middle" x="192.257" y="-285.8" font-family="Times,serif" font-size="14.00">nodeKind</text>
<polyline fill="none" stroke="black" points="130.257,-278 254.257,-278 "/>
<text text-anchor="middle" x="192.257" y="-262.8" font-family="Times,serif" font-size="14.00">&quot;literal&quot;</text>
<polyline fill="none" stroke="black" points="254.257,-255 254.257,-301 "/>
<text text-anchor="middle" x="310.257" y="-285.8" font-family="Times,serif" font-size="14.00">...*</text>
<polyline fill="none" stroke="black" points="254.257,-278 366.257,-278 "/>
<text text-anchor="middle" x="310.257" y="-262.8" font-family="Times,serif" font-size="14.00">xsFacet</text>
<polyline fill="none" stroke="black" points="366.257,-255 366.257,-301 "/>
<text text-anchor="middle" x="403.257" y="-274.3" font-family="Times,serif" font-size="14.00"> </text>
<polyline fill="none" stroke="black" points="130.257,-255 440.257,-255 "/>
<text text-anchor="middle" x="207.757" y="-239.8" font-family="Times,serif" font-size="14.00">nodeKind</text>
<polyline fill="none" stroke="black" points="130.257,-232 285.257,-232 "/>
<text text-anchor="middle" x="207.757" y="-216.8" font-family="Times,serif" font-size="14.00">&quot;iri&quot;|&quot;bnode&quot;|&quot;nonliteral&quot;</text>
<polyline fill="none" stroke="black" points="285.257,-209 285.257,-255 "/>
<text text-anchor="middle" x="324.257" y="-239.8" font-family="Times,serif" font-size="14.00">reference?</text>
<polyline fill="none" stroke="black" points="285.257,-232 363.257,-232 "/>
<text text-anchor="middle" x="324.257" y="-216.8" font-family="Times,serif" font-size="14.00">shapeLabel</text>
<polyline fill="none" stroke="black" points="363.257,-209 363.257,-255 "/>
<text text-anchor="middle" x="401.757" y="-239.8" font-family="Times,serif" font-size="14.00">...*</text>
<polyline fill="none" stroke="black" points="363.257,-232 440.257,-232 "/>
<text text-anchor="middle" x="401.757" y="-216.8" font-family="Times,serif" font-size="14.00">stringFacet</text>
<polyline fill="none" stroke="black" points="130.257,-209 440.257,-209 "/>
<text text-anchor="middle" x="189.257" y="-193.8" font-family="Times,serif" font-size="14.00">datatype</text>
<polyline fill="none" stroke="black" points="130.257,-186 248.257,-186 "/>
<text text-anchor="middle" x="189.257" y="-170.8" font-family="Times,serif" font-size="14.00">IRI</text>
<polyline fill="none" stroke="black" points="248.257,-163 248.257,-209 "/>
<text text-anchor="middle" x="305.757" y="-193.8" font-family="Times,serif" font-size="14.00">...*</text>
<polyline fill="none" stroke="black" points="248.257,-186 363.257,-186 "/>
<text text-anchor="middle" x="305.757" y="-170.8" font-family="Times,serif" font-size="14.00">xsFacet</text>
<polyline fill="none" stroke="black" points="363.257,-163 363.257,-209 "/>
<text text-anchor="middle" x="401.757" y="-182.3" font-family="Times,serif" font-size="14.00"> </text>
<polyline fill="none" stroke="black" points="130.257,-163 440.257,-163 "/>
<text text-anchor="middle" x="191.757" y="-147.8" font-family="Times,serif" font-size="14.00">reference?</text>
<polyline fill="none" stroke="black" points="130.257,-140 253.257,-140 "/>
<text text-anchor="middle" x="191.757" y="-124.8" font-family="Times,serif" font-size="14.00">shapeLabel</text>
<polyline fill="none" stroke="black" points="253.257,-117 253.257,-163 "/>
<text text-anchor="middle" x="314.257" y="-147.8" font-family="Times,serif" font-size="14.00">...*</text>
<polyline fill="none" stroke="black" points="253.257,-140 375.257,-140 "/>
<text text-anchor="middle" x="314.257" y="-124.8" font-family="Times,serif" font-size="14.00">stringFacet</text>
<polyline fill="none" stroke="black" points="375.257,-117 375.257,-163 "/>
<text text-anchor="middle" x="407.757" y="-136.3" font-family="Times,serif" font-size="14.00"> </text>
<polyline fill="none" stroke="black" points="130.257,-117 440.257,-117 "/>
<text text-anchor="middle" x="228.757" y="-101.8" font-family="Times,serif" font-size="14.00">values</text>
<polyline fill="none" stroke="black" points="130.257,-94 327.257,-94 "/>
<text text-anchor="middle" x="228.757" y="-78.8" font-family="Times,serif" font-size="14.00">[valueSetValue]</text>
<polyline fill="none" stroke="black" points="327.257,-71 327.257,-117 "/>
<text text-anchor="middle" x="383.757" y="-90.3" font-family="Times,serif" font-size="14.00"> </text>
<polyline fill="none" stroke="black" points="130.257,-71 440.257,-71 "/>
<text text-anchor="middle" x="285.257" y="-55.8" font-family="Times,serif" font-size="14.00">#empty      </text>
<polyline fill="none" stroke="black" points="130.257,-48 440.257,-48 "/>
<text text-anchor="middle" x="285.257" y="-32.8" font-family="Times,serif" font-size="14.00">#ValueClass</text>
</g>
<!-- ValueRef&#45;&gt;ValueClass -->
<g id="edge6" class="edge"><title>ValueRef&#45;&gt;ValueClass</title>
<path fill="none" stroke="none" d="M241.793,-338.785C241.174,-331.083 240.68,-321.778 240.313,-311.521"/>
<polygon fill="none" stroke="none" points="243.808,-311.303 239.999,-301.416 236.811,-311.52 243.808,-311.303"/>
</g>
<!-- ValueRef&#45;&gt;ValueClass -->
<g id="edge10" class="edge"><title>ValueRef&#45;&gt;ValueClass</title>
<path fill="none" stroke="none" d="M250.72,-338.785C251.34,-331.083 251.833,-321.778 252.201,-311.521"/>
<polygon fill="none" stroke="none" points="255.703,-311.52 252.515,-301.416 248.706,-311.303 255.703,-311.52"/>
</g>
<!-- ValueOr&#45;&gt;valueClassOrRef -->
<g id="edge21" class="edge"><title>ValueOr:valueClassOrRef&#45;&gt;valueClassOrRef</title>
<path fill="none" stroke="black" d="M254.257,-580C254.257,-559.73 275.679,-563.173 282.257,-544 289.18,-523.821 286.846,-516.834 282.257,-496 280.19,-486.617 276.326,-476.925 272.243,-468.386"/>
<polygon fill="black" stroke="black" points="275.28,-466.638 267.624,-459.314 269.042,-469.814 275.28,-466.638"/>
</g>
<!-- ValueAnd -->
<g id="node13" class="node"><title>ValueAnd</title>
<polygon fill="white" stroke="black" points="92.7569,-497 92.7569,-543 273.757,-543 273.757,-497 92.7569,-497"/>
<text text-anchor="middle" x="128.757" y="-516.3" font-family="Times,serif" font-size="14.00">ValueAnd</text>
<polyline fill="none" stroke="black" points="164.757,-497 164.757,-543 "/>
<text text-anchor="middle" x="219.257" y="-527.8" font-family="Times,serif" font-size="14.00">valueExprs</text>
<polyline fill="none" stroke="black" points="164.757,-520 273.757,-520 "/>
<text text-anchor="middle" x="219.257" y="-504.8" font-family="Times,serif" font-size="14.00">valueClassOrRef</text>
</g>
<!-- ValueOr&#45;&gt;ValueAnd -->
<g id="edge8" class="edge"><title>ValueOr&#45;&gt;ValueAnd</title>
<path fill="none" stroke="none" d="M211.6,-580.593C207.439,-571.844 202.596,-561.662 198.104,-552.216"/>
<polygon fill="none" stroke="none" points="201.222,-550.623 193.766,-543.096 194.9,-553.63 201.222,-550.623"/>
</g>
<!-- ValueAnd&#45;&gt;valueClassOrRef -->
<g id="edge22" class="edge"><title>ValueAnd:valueClassOrRef&#45;&gt;valueClassOrRef</title>
<path fill="none" stroke="black" d="M219.257,-496C219.257,-485.511 224.111,-475.621 230.35,-467.243"/>
<polygon fill="black" stroke="black" points="233.181,-469.314 236.922,-459.401 227.816,-464.817 233.181,-469.314"/>
</g>
<!-- ValueAnd&#45;&gt;ValueRef -->
<g id="edge9" class="edge"><title>ValueAnd&#45;&gt;ValueRef</title>
<path fill="none" stroke="none" d="M182.067,-496.831C181.816,-476.506 183.601,-446.012 194.257,-422 199.012,-411.286 206.425,-401.122 214.18,-392.345"/>
<polygon fill="none" stroke="none" points="216.761,-394.709 221.024,-385.01 211.643,-389.934 216.761,-394.709"/>
</g>
<!-- ValueExprDefn&#45;&gt;shapeExpr -->
<g id="edge13" class="edge"><title>ValueExprDefn&#45;&gt;shapeExpr</title>
<path fill="none" stroke="none" d="M385.075,-1148.73C383.853,-1140.17 382.444,-1130.31 381.161,-1121.33"/>
<polygon fill="none" stroke="none" points="384.612,-1120.74 379.733,-1111.33 377.682,-1121.73 384.612,-1120.74"/>
</g>
<!-- ValueExprDefn&#45;&gt;valueExpr -->
<g id="edge19" class="edge"><title>ValueExprDefn:valueExpr&#45;&gt;valueExpr</title>
<path fill="none" stroke="black" d="M363.257,-1148C363.257,-1109.87 49.1376,-1146.01 21.2569,-1120 -13.2624,-1087.8 5.25686,-1062.21 5.25686,-1015 5.25686,-1015 5.25686,-1015 5.25686,-845 5.25686,-793.397 -13.616,-768.037 21.2569,-730 41.782,-707.613 123.409,-694.693 176.117,-688.526"/>
<polygon fill="black" stroke="black" points="176.703,-691.983 186.247,-687.382 175.917,-685.027 176.703,-691.983"/>
</g>
<!-- ValueExprDefn&#45;&gt;SemAct -->
<g id="edge27" class="edge"><title>ValueExprDefn:SemAct&#45;&gt;SemAct:SemAct</title>
<path fill="none" stroke="mediumvioletred" d="M439.257,-1148C439.257,-1106.64 586.93,-1139.77 623.257,-1120 678.011,-1090.2 716.257,-1077.34 716.257,-1015 716.257,-1015 716.257,-1015 716.257,-761 716.257,-704.727 733.982,-689.511 736.059,-638.049"/>
<polygon fill="mediumvioletred" stroke="mediumvioletred" points="739.559,-638.067 736.257,-628 732.56,-637.929 739.559,-638.067"/>
</g>
<!-- ValueExprDefn&#45;&gt;Annotation -->
<g id="edge31" class="edge"><title>ValueExprDefn:Annotation&#45;&gt;Annotation:Annotation</title>
<path fill="none" stroke="mediumvioletred" d="M561.257,-1160C614.114,-1160 631.414,-1152.3 673.257,-1120 750.821,-1060.13 907.257,-919.112 907.257,-763 907.257,-763 907.257,-763 907.257,-682 907.257,-635.803 920.31,-612.274 887.257,-580 856.159,-549.635 705.195,-584.58 680.637,-553.893"/>
<polygon fill="mediumvioletred" stroke="mediumvioletred" points="683.802,-552.331 677.257,-544 677.178,-554.595 683.802,-552.331"/>
</g>
<!-- pushSemActDown&#45;&gt;SemAct -->
<g id="edge24" class="edge"><title>pushSemActDown&#45;&gt;SemAct:STRING</title>
<path fill="none" stroke="none" d="M841.332,-672.025C861.336,-651.704 903.077,-606.447 890.259,-594.784"/>
<polygon fill="none" stroke="none" points="890.829,-591.31 880.257,-592 888.952,-598.054 890.829,-591.31"/>
</g>
<!-- SemAct&#45;&gt;Annotation -->
<g id="edge25" class="edge"><title>SemAct:STRING&#45;&gt;Annotation</title>
<path fill="none" stroke="none" d="M846.257,-580C846.257,-567.176 839.873,-557.021 830.451,-549.018"/>
<polygon fill="none" stroke="none" points="832.442,-546.138 822.307,-543.051 828.305,-551.785 832.442,-546.138"/>
</g>
</g>
</svg>
