<?xml version="1.0" encoding="UTF-8" standalone="no"?>
<!DOCTYPE svg PUBLIC "-//W3C//DTD SVG 1.1//EN"
 "http://www.w3.org/Graphics/SVG/1.1/DTD/svg11.dtd">
<!-- Generated by graphviz version 2.36.0 (20140111.2315)
 -->
<!-- Title: structs Pages: 1 -->
<svg width="1077pt" height="1282pt"
 viewBox="0.00 0.00 1077.00 1282.00" xmlns="http://www.w3.org/2000/svg" xmlns:xlink="http://www.w3.org/1999/xlink">
<g id="graph0" class="graph" transform="scale(1 1) rotate(0) translate(4 1278)">
<title>structs</title>
<polygon fill="white" stroke="none" points="-4,4 -4,-1278 1073,-1278 1073,4 -4,4"/>
<g id="clust1" class="cluster"><title>cluster_expr</title>
<polygon fill="#cccccc" stroke="black" points="473,-726 473,-1114 1061,-1114 1061,-726 473,-726"/>
</g>
<g id="clust2" class="cluster"><title>cluster_valueExpr</title>
<polygon fill="#cccccc" stroke="black" points="389,-8 389,-706 827,-706 827,-8 389,-8"/>
</g>
<g id="clust3" class="cluster"><title>cluster_valueClassOrRef</title>
<polygon fill="#b3b3b3" stroke="black" points="397,-16 397,-466 819,-466 819,-16 397,-16"/>
</g>
<!-- schema -->
<g id="node1" class="node"><title>schema</title>
<polygon fill="none" stroke="black" points="0,-1227 0,-1273 682,-1273 682,-1227 0,-1227"/>
<text text-anchor="middle" x="31" y="-1246.3" font-family="Times,serif" font-size="14.00">schema:</text>
<polyline fill="none" stroke="black" points="62,-1227 62,-1273 "/>
<text text-anchor="middle" x="122.5" y="-1257.8" font-family="Times,serif" font-size="14.00">prefixes?</text>
<polyline fill="none" stroke="black" points="62,-1250 183,-1250 "/>
<text text-anchor="middle" x="103" y="-1234.8" font-family="Times,serif" font-size="14.00">[PREFIX→</text>
<polyline fill="none" stroke="black" points="144,-1227 144,-1250 "/>
<text text-anchor="middle" x="163.5" y="-1234.8" font-family="Times,serif" font-size="14.00">IRI]</text>
<polyline fill="none" stroke="black" points="183,-1227 183,-1273 "/>
<text text-anchor="middle" x="283.5" y="-1257.8" font-family="Times,serif" font-size="14.00">valueExprDefns?</text>
<polyline fill="none" stroke="black" points="183,-1250 384,-1250 "/>
<text text-anchor="middle" x="231.5" y="-1234.8" font-family="Times,serif" font-size="14.00">[shapeLabel→</text>
<polyline fill="none" stroke="black" points="280,-1227 280,-1250 "/>
<text text-anchor="middle" x="332" y="-1234.8" font-family="Times,serif" font-size="14.00">valueExprDefn]</text>
<polyline fill="none" stroke="black" points="384,-1227 384,-1273 "/>
<text text-anchor="middle" x="419.5" y="-1257.8" font-family="Times,serif" font-size="14.00">startActs?</text>
<polyline fill="none" stroke="black" points="384,-1250 455,-1250 "/>
<text text-anchor="middle" x="419.5" y="-1234.8" font-family="Times,serif" font-size="14.00">[semact]</text>
<polyline fill="none" stroke="black" points="455,-1227 455,-1273 "/>
<text text-anchor="middle" x="494" y="-1257.8" font-family="Times,serif" font-size="14.00">start?</text>
<polyline fill="none" stroke="black" points="455,-1250 533,-1250 "/>
<text text-anchor="middle" x="494" y="-1234.8" font-family="Times,serif" font-size="14.00">shapeLabel</text>
<polyline fill="none" stroke="black" points="533,-1227 533,-1273 "/>
<text text-anchor="middle" x="607.5" y="-1257.8" font-family="Times,serif" font-size="14.00">shapes?</text>
<polyline fill="none" stroke="black" points="533,-1250 682,-1250 "/>
<text text-anchor="middle" x="581.5" y="-1234.8" font-family="Times,serif" font-size="14.00">[shapeLabel→</text>
<polyline fill="none" stroke="black" points="630,-1227 630,-1250 "/>
<text text-anchor="middle" x="656" y="-1234.8" font-family="Times,serif" font-size="14.00">shape]</text>
</g>
<!-- shape -->
<g id="node2" class="node"><title>shape</title>
<polygon fill="none" stroke="black" points="519.5,-1143 519.5,-1189 972.5,-1189 972.5,-1143 519.5,-1143"/>
<text text-anchor="middle" x="545" y="-1162.3" font-family="Times,serif" font-size="14.00">shape:</text>
<polyline fill="none" stroke="black" points="570.5,-1143 570.5,-1189 "/>
<text text-anchor="middle" x="599.5" y="-1173.8" font-family="Times,serif" font-size="14.00">virtual?</text>
<polyline fill="none" stroke="black" points="570.5,-1166 628.5,-1166 "/>
<text text-anchor="middle" x="599.5" y="-1150.8" font-family="Times,serif" font-size="14.00">BOOL</text>
<polyline fill="none" stroke="black" points="628.5,-1143 628.5,-1189 "/>
<text text-anchor="middle" x="657" y="-1173.8" font-family="Times,serif" font-size="14.00">closed?</text>
<polyline fill="none" stroke="black" points="628.5,-1166 685.5,-1166 "/>
<text text-anchor="middle" x="657" y="-1150.8" font-family="Times,serif" font-size="14.00">BOOL</text>
<polyline fill="none" stroke="black" points="685.5,-1143 685.5,-1189 "/>
<text text-anchor="middle" x="710.5" y="-1173.8" font-family="Times,serif" font-size="14.00">extra?</text>
<polyline fill="none" stroke="black" points="685.5,-1166 735.5,-1166 "/>
<text text-anchor="middle" x="710.5" y="-1150.8" font-family="Times,serif" font-size="14.00">[IRI]</text>
<polyline fill="none" stroke="black" points="735.5,-1143 735.5,-1189 "/>
<text text-anchor="middle" x="775.5" y="-1173.8" font-family="Times,serif" font-size="14.00">expression?</text>
<polyline fill="none" stroke="black" points="735.5,-1166 815.5,-1166 "/>
<text text-anchor="middle" x="775.5" y="-1150.8" font-family="Times,serif" font-size="14.00">expr</text>
<polyline fill="none" stroke="black" points="815.5,-1143 815.5,-1189 "/>
<text text-anchor="middle" x="859" y="-1173.8" font-family="Times,serif" font-size="14.00">inherit?</text>
<polyline fill="none" stroke="black" points="815.5,-1166 902.5,-1166 "/>
<text text-anchor="middle" x="859" y="-1150.8" font-family="Times,serif" font-size="14.00">[shapeLabel]</text>
<polyline fill="none" stroke="black" points="902.5,-1143 902.5,-1189 "/>
<text text-anchor="middle" x="937.5" y="-1173.8" font-family="Times,serif" font-size="14.00">semActs?</text>
<polyline fill="none" stroke="black" points="902.5,-1166 972.5,-1166 "/>
<text text-anchor="middle" x="937.5" y="-1150.8" font-family="Times,serif" font-size="14.00">[semAct]</text>
</g>
<!-- schema&#45;&gt;shape -->
<g id="edge11" class="edge"><title>schema:schema&#45;&gt;shape:shape</title>
<path fill="none" stroke="none" d="M31,-1226C31,-1172.63 467.903,-1222.81 510,-1190 514.573,-1186.44 513.567,-1180.17 513.062,-1174.93"/>
<polygon fill="none" stroke="none" points="516.223,-1176.44 518,-1166 510.098,-1173.06 516.223,-1176.44"/>
</g>
<!-- schema&#45;&gt;shape -->
<g id="edge15" class="edge"><title>schema:shape&#45;&gt;shape:shape</title>
<path fill="none" stroke="black" d="M683,-1238C688.352,-1238 685.522,-1230.03 682,-1226 633.176,-1170.14 566.655,-1246.86 519,-1190 515.357,-1185.65 512.289,-1179.15 511.815,-1174.01"/>
<polygon fill="black" stroke="black" points="514.659,-1176.05 518,-1166 509.118,-1171.78 514.659,-1176.05"/>
</g>
<!-- valueExprDefn -->
<g id="node14" class="node"><title>valueExprDefn</title>
<polygon fill="none" stroke="black" points="162.5,-1143 162.5,-1189 501.5,-1189 501.5,-1143 162.5,-1143"/>
<text text-anchor="middle" x="214" y="-1162.3" font-family="Times,serif" font-size="14.00">valueExprDefn:</text>
<polyline fill="none" stroke="black" points="265.5,-1143 265.5,-1189 "/>
<text text-anchor="middle" x="306" y="-1173.8" font-family="Times,serif" font-size="14.00">valueExpr</text>
<polyline fill="none" stroke="black" points="265.5,-1166 346.5,-1166 "/>
<text text-anchor="middle" x="306" y="-1150.8" font-family="Times,serif" font-size="14.00">[valueExpr]</text>
<polyline fill="none" stroke="black" points="346.5,-1143 346.5,-1189 "/>
<text text-anchor="middle" x="381.5" y="-1173.8" font-family="Times,serif" font-size="14.00">semActs?</text>
<polyline fill="none" stroke="black" points="346.5,-1166 416.5,-1166 "/>
<text text-anchor="middle" x="381.5" y="-1150.8" font-family="Times,serif" font-size="14.00">[semAct]</text>
<polyline fill="none" stroke="black" points="416.5,-1143 416.5,-1189 "/>
<text text-anchor="middle" x="459" y="-1173.8" font-family="Times,serif" font-size="14.00">annotations?</text>
<polyline fill="none" stroke="black" points="416.5,-1166 501.5,-1166 "/>
<text text-anchor="middle" x="459" y="-1150.8" font-family="Times,serif" font-size="14.00">[annotation]</text>
</g>
<!-- schema&#45;&gt;valueExprDefn -->
<g id="edge16" class="edge"><title>schema:valueExprDefn&#45;&gt;valueExprDefn</title>
<path fill="none" stroke="black" d="M332,-1226C332,-1217.33 332,-1207.95 332,-1199.27"/>
<polygon fill="black" stroke="black" points="335.5,-1199.13 332,-1189.13 328.5,-1199.13 335.5,-1199.13"/>
</g>
<!-- expr -->
<g id="node3" class="node"><title>expr</title>
<text text-anchor="middle" x="746" y="-1084.3" font-family="Times,serif" font-size="14.00">expr</text>
</g>
<!-- shape&#45;&gt;expr -->
<g id="edge12" class="edge"><title>shape:expr&#45;&gt;expr</title>
<path fill="none" stroke="black" d="M776,-1142C776,-1132.37 772.204,-1122.89 767.313,-1114.66"/>
<polygon fill="black" stroke="black" points="770.175,-1112.65 761.703,-1106.28 764.359,-1116.54 770.175,-1112.65"/>
</g>
<!-- eachOf -->
<g id="node4" class="node"><title>eachOf</title>
<polygon fill="white" stroke="black" points="591.5,-987 591.5,-1033 1052.5,-1033 1052.5,-987 591.5,-987"/>
<text text-anchor="middle" x="619.5" y="-1006.3" font-family="Times,serif" font-size="14.00">eachOf</text>
<polyline fill="none" stroke="black" points="647.5,-987 647.5,-1033 "/>
<text text-anchor="middle" x="687.5" y="-1017.8" font-family="Times,serif" font-size="14.00">expressions</text>
<polyline fill="none" stroke="black" points="647.5,-1010 727.5,-1010 "/>
<text text-anchor="middle" x="687.5" y="-994.8" font-family="Times,serif" font-size="14.00">[expr]</text>
<polyline fill="none" stroke="black" points="727.5,-987 727.5,-1033 "/>
<text text-anchor="middle" x="764.5" y="-1017.8" font-family="Times,serif" font-size="14.00">min?</text>
<polyline fill="none" stroke="black" points="727.5,-1010 801.5,-1010 "/>
<text text-anchor="middle" x="764.5" y="-994.8" font-family="Times,serif" font-size="14.00">INTEGER</text>
<polyline fill="none" stroke="black" points="801.5,-987 801.5,-1033 "/>
<text text-anchor="middle" x="849.5" y="-1017.8" font-family="Times,serif" font-size="14.00">max?</text>
<polyline fill="none" stroke="black" points="801.5,-1010 897.5,-1010 "/>
<text text-anchor="middle" x="849.5" y="-994.8" font-family="Times,serif" font-size="14.00">INTEGER|&quot;*&quot;</text>
<polyline fill="none" stroke="black" points="897.5,-987 897.5,-1033 "/>
<text text-anchor="middle" x="932.5" y="-1017.8" font-family="Times,serif" font-size="14.00">semActs?</text>
<polyline fill="none" stroke="black" points="897.5,-1010 967.5,-1010 "/>
<text text-anchor="middle" x="932.5" y="-994.8" font-family="Times,serif" font-size="14.00">[semAct]</text>
<polyline fill="none" stroke="black" points="967.5,-987 967.5,-1033 "/>
<text text-anchor="middle" x="1010" y="-1017.8" font-family="Times,serif" font-size="14.00">annotations?</text>
<polyline fill="none" stroke="black" points="967.5,-1010 1052.5,-1010 "/>
<text text-anchor="middle" x="1010" y="-994.8" font-family="Times,serif" font-size="14.00">[annotation]</text>
</g>
<!-- expr&#45;&gt;eachOf -->
<g id="edge1" class="edge"><title>expr&#45;&gt;eachOf</title>
<path fill="none" stroke="none" d="M763.246,-1069.75C771.985,-1061.01 782.838,-1050.16 792.829,-1040.17"/>
<polygon fill="none" stroke="none" points="795.313,-1042.64 799.909,-1033.09 790.363,-1037.69 795.313,-1042.64"/>
</g>
<!-- eachOf&#45;&gt;expr -->
<g id="edge13" class="edge"><title>eachOf:expr&#45;&gt;expr</title>
<path fill="none" stroke="black" d="M687,-986C687,-964.777 606.428,-971.914 591.5,-987 576.807,-1001.85 579.36,-1017 591.5,-1034 617.975,-1071.07 672.06,-1082.49 708.68,-1085.85"/>
<polygon fill="black" stroke="black" points="708.735,-1089.36 718.97,-1086.62 709.262,-1082.38 708.735,-1089.36"/>
</g>
<!-- someOf -->
<g id="node5" class="node"><title>someOf</title>
<polygon fill="white" stroke="black" points="534.5,-903 534.5,-949 999.5,-949 999.5,-903 534.5,-903"/>
<text text-anchor="middle" x="564.5" y="-922.3" font-family="Times,serif" font-size="14.00">someOf</text>
<polyline fill="none" stroke="black" points="594.5,-903 594.5,-949 "/>
<text text-anchor="middle" x="634.5" y="-933.8" font-family="Times,serif" font-size="14.00">expressions</text>
<polyline fill="none" stroke="black" points="594.5,-926 674.5,-926 "/>
<text text-anchor="middle" x="634.5" y="-910.8" font-family="Times,serif" font-size="14.00">[expr]</text>
<polyline fill="none" stroke="black" points="674.5,-903 674.5,-949 "/>
<text text-anchor="middle" x="711.5" y="-933.8" font-family="Times,serif" font-size="14.00">min?</text>
<polyline fill="none" stroke="black" points="674.5,-926 748.5,-926 "/>
<text text-anchor="middle" x="711.5" y="-910.8" font-family="Times,serif" font-size="14.00">INTEGER</text>
<polyline fill="none" stroke="black" points="748.5,-903 748.5,-949 "/>
<text text-anchor="middle" x="796.5" y="-933.8" font-family="Times,serif" font-size="14.00">max?</text>
<polyline fill="none" stroke="black" points="748.5,-926 844.5,-926 "/>
<text text-anchor="middle" x="796.5" y="-910.8" font-family="Times,serif" font-size="14.00">INTEGER|&quot;*&quot;</text>
<polyline fill="none" stroke="black" points="844.5,-903 844.5,-949 "/>
<text text-anchor="middle" x="879.5" y="-933.8" font-family="Times,serif" font-size="14.00">semActs?</text>
<polyline fill="none" stroke="black" points="844.5,-926 914.5,-926 "/>
<text text-anchor="middle" x="879.5" y="-910.8" font-family="Times,serif" font-size="14.00">[semAct]</text>
<polyline fill="none" stroke="black" points="914.5,-903 914.5,-949 "/>
<text text-anchor="middle" x="957" y="-933.8" font-family="Times,serif" font-size="14.00">annotations?</text>
<polyline fill="none" stroke="black" points="914.5,-926 999.5,-926 "/>
<text text-anchor="middle" x="957" y="-910.8" font-family="Times,serif" font-size="14.00">[annotation]</text>
</g>
<!-- eachOf&#45;&gt;someOf -->
<g id="edge2" class="edge"><title>eachOf&#45;&gt;someOf</title>
<path fill="none" stroke="none" d="M806.971,-986.593C800.981,-977.662 793.989,-967.238 787.542,-957.627"/>
<polygon fill="none" stroke="none" points="790.298,-955.451 781.82,-949.096 784.484,-959.35 790.298,-955.451"/>
</g>
<!-- someOf&#45;&gt;expr -->
<g id="edge14" class="edge"><title>someOf:expr&#45;&gt;expr</title>
<path fill="none" stroke="black" d="M634,-902C634,-879.888 550.057,-887.286 534.5,-903 519.804,-917.845 529.093,-929.823 534.5,-950 545.658,-991.64 549.5,-1006.87 583,-1034 619.62,-1063.66 673.311,-1076.91 708.938,-1082.7"/>
<polygon fill="black" stroke="black" points="708.517,-1086.17 718.927,-1084.2 709.56,-1079.25 708.517,-1086.17"/>
</g>
<!-- inclusion -->
<g id="node6" class="node"><title>inclusion</title>
<polygon fill="white" stroke="black" points="695,-819 695,-865 839,-865 839,-819 695,-819"/>
<text text-anchor="middle" x="728" y="-838.3" font-family="Times,serif" font-size="14.00">inclusion</text>
<polyline fill="none" stroke="black" points="761,-819 761,-865 "/>
<text text-anchor="middle" x="800" y="-849.8" font-family="Times,serif" font-size="14.00">include</text>
<polyline fill="none" stroke="black" points="761,-842 839,-842 "/>
<text text-anchor="middle" x="800" y="-826.8" font-family="Times,serif" font-size="14.00">shapeLabel</text>
</g>
<!-- someOf&#45;&gt;inclusion -->
<g id="edge3" class="edge"><title>someOf&#45;&gt;inclusion</title>
<path fill="none" stroke="none" d="M767,-902.593C767,-894.118 767,-884.297 767,-875.104"/>
<polygon fill="none" stroke="none" points="770.5,-875.096 767,-865.096 763.5,-875.096 770.5,-875.096"/>
</g>
<!-- tripleConstraint -->
<g id="node7" class="node"><title>tripleConstraint</title>
<polygon fill="white" stroke="black" points="481,-735 481,-781 1053,-781 1053,-735 481,-735"/>
<text text-anchor="middle" x="531.5" y="-754.3" font-family="Times,serif" font-size="14.00">tripleConstraint</text>
<polyline fill="none" stroke="black" points="582,-735 582,-781 "/>
<text text-anchor="middle" x="614.5" y="-765.8" font-family="Times,serif" font-size="14.00">negated?</text>
<polyline fill="none" stroke="black" points="582,-758 647,-758 "/>
<text text-anchor="middle" x="614.5" y="-742.8" font-family="Times,serif" font-size="14.00">BOOL</text>
<polyline fill="none" stroke="black" points="647,-735 647,-781 "/>
<text text-anchor="middle" x="687.5" y="-765.8" font-family="Times,serif" font-size="14.00">valueExpr</text>
<polyline fill="none" stroke="black" points="647,-758 728,-758 "/>
<text text-anchor="middle" x="687.5" y="-742.8" font-family="Times,serif" font-size="14.00">[valueExpr]</text>
<polyline fill="none" stroke="black" points="728,-735 728,-781 "/>
<text text-anchor="middle" x="765" y="-765.8" font-family="Times,serif" font-size="14.00">min?</text>
<polyline fill="none" stroke="black" points="728,-758 802,-758 "/>
<text text-anchor="middle" x="765" y="-742.8" font-family="Times,serif" font-size="14.00">INTEGER</text>
<polyline fill="none" stroke="black" points="802,-735 802,-781 "/>
<text text-anchor="middle" x="850" y="-765.8" font-family="Times,serif" font-size="14.00">max?</text>
<polyline fill="none" stroke="black" points="802,-758 898,-758 "/>
<text text-anchor="middle" x="850" y="-742.8" font-family="Times,serif" font-size="14.00">INTEGER|&quot;*&quot;</text>
<polyline fill="none" stroke="black" points="898,-735 898,-781 "/>
<text text-anchor="middle" x="933" y="-765.8" font-family="Times,serif" font-size="14.00">semActs?</text>
<polyline fill="none" stroke="black" points="898,-758 968,-758 "/>
<text text-anchor="middle" x="933" y="-742.8" font-family="Times,serif" font-size="14.00">[semAct]</text>
<polyline fill="none" stroke="black" points="968,-735 968,-781 "/>
<text text-anchor="middle" x="1010.5" y="-765.8" font-family="Times,serif" font-size="14.00">annotations?</text>
<polyline fill="none" stroke="black" points="968,-758 1053,-758 "/>
<text text-anchor="middle" x="1010.5" y="-742.8" font-family="Times,serif" font-size="14.00">[annotation]</text>
</g>
<!-- inclusion&#45;&gt;tripleConstraint -->
<g id="edge4" class="edge"><title>inclusion&#45;&gt;tripleConstraint</title>
<path fill="none" stroke="none" d="M767,-818.593C767,-810.118 767,-800.297 767,-791.104"/>
<polygon fill="none" stroke="none" points="770.5,-791.096 767,-781.096 763.5,-791.096 770.5,-791.096"/>
</g>
<!-- valueExpr -->
<g id="node8" class="node"><title>valueExpr</title>
<text text-anchor="middle" x="661" y="-676.3" font-family="Times,serif" font-size="14.00">valueExpr</text>
</g>
<!-- tripleConstraint&#45;&gt;valueExpr -->
<g id="edge18" class="edge"><title>tripleConstraint:valueExpr&#45;&gt;valueExpr</title>
<path fill="none" stroke="black" d="M687,-734C687,-724.617 683.675,-715.168 679.403,-706.899"/>
<polygon fill="black" stroke="black" points="682.357,-705.016 674.305,-698.131 676.306,-708.535 682.357,-705.016"/>
</g>
<!-- vcor -->
<g id="node12" class="node"><title>vcor</title>
<polygon fill="white" stroke="black" points="586,-579 586,-625 736,-625 736,-579 586,-579"/>
<text text-anchor="middle" x="606.5" y="-598.3" font-family="Times,serif" font-size="14.00">vcor</text>
<polyline fill="none" stroke="black" points="627,-579 627,-625 "/>
<text text-anchor="middle" x="681.5" y="-609.8" font-family="Times,serif" font-size="14.00">valueExprs</text>
<polyline fill="none" stroke="black" points="627,-602 736,-602 "/>
<text text-anchor="middle" x="681.5" y="-586.8" font-family="Times,serif" font-size="14.00">valueClassOrRef</text>
</g>
<!-- valueExpr&#45;&gt;vcor -->
<g id="edge7" class="edge"><title>valueExpr&#45;&gt;vcor</title>
<path fill="none" stroke="none" d="M661,-661.754C661,-653.863 661,-644.249 661,-635.102"/>
<polygon fill="none" stroke="none" points="664.5,-635.091 661,-625.091 657.5,-635.091 664.5,-635.091"/>
</g>
<!-- valueClassOrRef -->
<g id="node9" class="node"><title>valueClassOrRef</title>
<text text-anchor="middle" x="623" y="-436.3" font-family="Times,serif" font-size="14.00">valueClassOrRef</text>
</g>
<!-- valueClass -->
<g id="node10" class="node"><title>valueClass</title>
<polygon fill="white" stroke="black" points="405.5,-109 405.5,-385 790.5,-385 790.5,-109 405.5,-109"/>
<text text-anchor="middle" x="443" y="-243.3" font-family="Times,serif" font-size="14.00">valueClass</text>
<polyline fill="none" stroke="black" points="480.5,-109 480.5,-385 "/>
<text text-anchor="middle" x="542.5" y="-369.8" font-family="Times,serif" font-size="14.00">nodeKind</text>
<polyline fill="none" stroke="black" points="480.5,-362 604.5,-362 "/>
<text text-anchor="middle" x="542.5" y="-346.8" font-family="Times,serif" font-size="14.00">&quot;literal&quot;</text>
<polyline fill="none" stroke="black" points="604.5,-339 604.5,-385 "/>
<text text-anchor="middle" x="660.5" y="-369.8" font-family="Times,serif" font-size="14.00">...*</text>
<polyline fill="none" stroke="black" points="604.5,-362 716.5,-362 "/>
<text text-anchor="middle" x="660.5" y="-346.8" font-family="Times,serif" font-size="14.00">xsFacet</text>
<polyline fill="none" stroke="black" points="716.5,-339 716.5,-385 "/>
<text text-anchor="middle" x="753.5" y="-358.3" font-family="Times,serif" font-size="14.00"> </text>
<polyline fill="none" stroke="black" points="480.5,-339 790.5,-339 "/>
<text text-anchor="middle" x="558" y="-323.8" font-family="Times,serif" font-size="14.00">nodeKind</text>
<polyline fill="none" stroke="black" points="480.5,-316 635.5,-316 "/>
<text text-anchor="middle" x="558" y="-300.8" font-family="Times,serif" font-size="14.00">&quot;iri&quot;|&quot;bnode&quot;|&quot;nonliteral&quot;</text>
<polyline fill="none" stroke="black" points="635.5,-293 635.5,-339 "/>
<text text-anchor="middle" x="674.5" y="-323.8" font-family="Times,serif" font-size="14.00">reference?</text>
<polyline fill="none" stroke="black" points="635.5,-316 713.5,-316 "/>
<text text-anchor="middle" x="674.5" y="-300.8" font-family="Times,serif" font-size="14.00">shapeLabel</text>
<polyline fill="none" stroke="black" points="713.5,-293 713.5,-339 "/>
<text text-anchor="middle" x="752" y="-323.8" font-family="Times,serif" font-size="14.00">...*</text>
<polyline fill="none" stroke="black" points="713.5,-316 790.5,-316 "/>
<text text-anchor="middle" x="752" y="-300.8" font-family="Times,serif" font-size="14.00">stringFacet</text>
<polyline fill="none" stroke="black" points="480.5,-293 790.5,-293 "/>
<text text-anchor="middle" x="539.5" y="-277.8" font-family="Times,serif" font-size="14.00">datatype</text>
<polyline fill="none" stroke="black" points="480.5,-270 598.5,-270 "/>
<text text-anchor="middle" x="539.5" y="-254.8" font-family="Times,serif" font-size="14.00">IRI</text>
<polyline fill="none" stroke="black" points="598.5,-247 598.5,-293 "/>
<text text-anchor="middle" x="656" y="-277.8" font-family="Times,serif" font-size="14.00">...*</text>
<polyline fill="none" stroke="black" points="598.5,-270 713.5,-270 "/>
<text text-anchor="middle" x="656" y="-254.8" font-family="Times,serif" font-size="14.00">xsFacet</text>
<polyline fill="none" stroke="black" points="713.5,-247 713.5,-293 "/>
<text text-anchor="middle" x="752" y="-266.3" font-family="Times,serif" font-size="14.00"> </text>
<polyline fill="none" stroke="black" points="480.5,-247 790.5,-247 "/>
<text text-anchor="middle" x="542" y="-231.8" font-family="Times,serif" font-size="14.00">reference?</text>
<polyline fill="none" stroke="black" points="480.5,-224 603.5,-224 "/>
<text text-anchor="middle" x="542" y="-208.8" font-family="Times,serif" font-size="14.00">shapeLabel</text>
<polyline fill="none" stroke="black" points="603.5,-201 603.5,-247 "/>
<text text-anchor="middle" x="664.5" y="-231.8" font-family="Times,serif" font-size="14.00">...*</text>
<polyline fill="none" stroke="black" points="603.5,-224 725.5,-224 "/>
<text text-anchor="middle" x="664.5" y="-208.8" font-family="Times,serif" font-size="14.00">stringFacet</text>
<polyline fill="none" stroke="black" points="725.5,-201 725.5,-247 "/>
<text text-anchor="middle" x="758" y="-220.3" font-family="Times,serif" font-size="14.00"> </text>
<polyline fill="none" stroke="black" points="480.5,-201 790.5,-201 "/>
<text text-anchor="middle" x="579" y="-185.8" font-family="Times,serif" font-size="14.00">values</text>
<polyline fill="none" stroke="black" points="480.5,-178 677.5,-178 "/>
<text text-anchor="middle" x="579" y="-162.8" font-family="Times,serif" font-size="14.00">[valueSetValue]</text>
<polyline fill="none" stroke="black" points="677.5,-155 677.5,-201 "/>
<text text-anchor="middle" x="734" y="-174.3" font-family="Times,serif" font-size="14.00"> </text>
<polyline fill="none" stroke="black" points="480.5,-155 790.5,-155 "/>
<text text-anchor="middle" x="635.5" y="-139.8" font-family="Times,serif" font-size="14.00">#empty      </text>
<polyline fill="none" stroke="black" points="480.5,-132 790.5,-132 "/>
<text text-anchor="middle" x="635.5" y="-116.8" font-family="Times,serif" font-size="14.00">#valueClass</text>
</g>
<!-- valueClassOrRef&#45;&gt;valueClass -->
<g id="edge5" class="edge"><title>valueClassOrRef&#45;&gt;valueClass</title>
<path fill="none" stroke="none" d="M620.737,-421.713C619.799,-414.545 618.619,-405.526 617.291,-395.386"/>
<polygon fill="none" stroke="none" points="620.745,-394.805 615.977,-385.344 613.805,-395.714 620.745,-394.805"/>
</g>
<!-- vcref -->
<g id="node11" class="node"><title>vcref</title>
<polygon fill="white" stroke="black" points="602,-25 602,-71 738,-71 738,-25 602,-25"/>
<text text-anchor="middle" x="624" y="-44.3" font-family="Times,serif" font-size="14.00">vcref</text>
<polyline fill="none" stroke="black" points="646,-25 646,-71 "/>
<text text-anchor="middle" x="692" y="-55.8" font-family="Times,serif" font-size="14.00">valueExprRef</text>
<polyline fill="none" stroke="black" points="646,-48 738,-48 "/>
<text text-anchor="middle" x="692" y="-32.8" font-family="Times,serif" font-size="14.00">shapeLabel</text>
</g>
<!-- valueClassOrRef&#45;&gt;vcref -->
<g id="edge10" class="edge"><title>valueClassOrRef&#45;&gt;vcref</title>
<path fill="none" stroke="none" d="M677.585,-438.73C718.237,-435.291 771.304,-423.265 799,-386 872.702,-286.834 865.77,-211.96 799,-108 787.055,-89.4018 767.629,-76.5923 747.436,-67.7986"/>
<polygon fill="none" stroke="none" points="748.711,-64.539 738.128,-64.0345 746.087,-71.0284 748.711,-64.539"/>
</g>
<!-- valueClass&#45;&gt;vcref -->
<g id="edge6" class="edge"><title>valueClass&#45;&gt;vcref</title>
<path fill="none" stroke="none" d="M648.104,-108.909C651.843,-98.6786 655.341,-89.108 658.396,-80.7487"/>
<polygon fill="none" stroke="none" points="661.744,-81.784 661.89,-71.1901 655.17,-79.381 661.744,-81.784"/>
</g>
<!-- vcor&#45;&gt;valueClassOrRef -->
<g id="edge19" class="edge"><title>vcor:valueClassOrRef&#45;&gt;valueClassOrRef</title>
<path fill="none" stroke="black" d="M682,-578C682,-557.73 703.422,-561.173 710,-542 716.923,-521.821 720.448,-512.6 710,-494 702.751,-481.096 690.944,-470.964 678.334,-463.172"/>
<polygon fill="black" stroke="black" points="679.942,-460.06 669.522,-458.146 676.474,-466.14 679.942,-460.06"/>
</g>
<!-- vcand -->
<g id="node13" class="node"><title>vcand</title>
<polygon fill="white" stroke="black" points="544,-495 544,-541 702,-541 702,-495 544,-495"/>
<text text-anchor="middle" x="568.5" y="-514.3" font-family="Times,serif" font-size="14.00">vcand</text>
<polyline fill="none" stroke="black" points="593,-495 593,-541 "/>
<text text-anchor="middle" x="647.5" y="-525.8" font-family="Times,serif" font-size="14.00">valueExprs</text>
<polyline fill="none" stroke="black" points="593,-518 702,-518 "/>
<text text-anchor="middle" x="647.5" y="-502.8" font-family="Times,serif" font-size="14.00">valueClassOrRef</text>
</g>
<!-- vcor&#45;&gt;vcand -->
<g id="edge8" class="edge"><title>vcor&#45;&gt;vcand</title>
<path fill="none" stroke="none" d="M650.616,-578.593C646.562,-569.844 641.844,-559.662 637.466,-550.216"/>
<polygon fill="none" stroke="none" points="640.62,-548.697 633.24,-541.096 634.269,-551.641 640.62,-548.697"/>
</g>
<!-- vcand&#45;&gt;valueClassOrRef -->
<g id="edge9" class="edge"><title>vcand&#45;&gt;valueClassOrRef</title>
<path fill="none" stroke="none" d="M623,-494.609C623,-486.481 623,-477.2 623,-468.671"/>
<polygon fill="none" stroke="none" points="626.5,-468.412 623,-458.412 619.5,-468.412 626.5,-468.412"/>
</g>
<!-- vcand&#45;&gt;valueClassOrRef -->
<g id="edge20" class="edge"><title>vcand:valueClassOrRef&#45;&gt;valueClassOrRef</title>
<path fill="none" stroke="black" d="M648,-494C648,-484.686 644.803,-475.256 640.695,-466.984"/>
<polygon fill="black" stroke="black" points="643.724,-465.229 635.793,-458.204 637.612,-468.642 643.724,-465.229"/>
</g>
<!-- valueExprDefn&#45;&gt;valueExpr -->
<g id="edge17" class="edge"><title>valueExprDefn:valueExpr&#45;&gt;valueExpr</title>
<path fill="none" stroke="black" d="M306,-1142C306,-1082.37 335,-1070.63 335,-1011 335,-1011 335,-1011 335,-841 335,-717.89 524.672,-689.498 614.664,-682.956"/>
<polygon fill="black" stroke="black" points="615.121,-686.433 624.867,-682.277 614.656,-679.449 615.121,-686.433"/>
</g>
</g>
</svg>
